<?xml version="1.0" encoding="UTF-8"?>
<svg version="1.1" xmlns="http://www.w3.org/2000/svg" width="134" height="138">
<path d="M0 0 C0.79470703 -0.01611328 1.58941406 -0.03222656 2.40820312 -0.04882812 C9.31985796 -0.05445193 15.69681104 0.86888926 21.08203125 5.4609375 C23.09008042 9.32868392 23.19494086 12.63554621 23.25 16.9375 C23.33060579 22.70688746 23.33060579 22.70688746 24.5625 28.3125 C24.6953125 30.25 24.6953125 30.25 24.6875 32.3125 C24.69136719 33.3334375 24.69136719 33.3334375 24.6953125 34.375 C24.5625 36.3125 24.5625 36.3125 23.5625 39.3125 C24.12646484 39.29678955 24.69042969 39.2810791 25.27148438 39.26489258 C27.86838435 39.20188426 30.46512275 39.16330402 33.0625 39.125 C34.3928125 39.08729492 34.3928125 39.08729492 35.75 39.04882812 C41.7414417 38.98274605 46.15546671 39.65085198 51.5625 42.3125 C54.32484612 45.24523382 54.93982178 47.2168632 54.92578125 51.20703125 C54.92642578 52.15634521 54.92707031 53.10565918 54.92773438 54.08374023 C54.91033203 55.08735596 54.89292969 56.09097168 54.875 57.125 C54.86243164 58.66039429 54.86243164 58.66039429 54.84960938 60.22680664 C54.72154912 68.38104306 53.98318526 76.28309134 52.5625 84.3125 C50.52240245 84.96327296 48.48034331 85.60789824 46.4375 86.25 C45.30054687 86.60964844 44.16359375 86.96929687 42.9921875 87.33984375 C34.96646198 89.61593219 27.16026978 89.49595248 18.875 89.5 C17.53059698 89.51215261 16.18619588 89.52452045 14.84179688 89.53710938 C12.93430664 89.54000977 12.93430664 89.54000977 10.98828125 89.54296875 C9.24671753 89.54913208 9.24671753 89.54913208 7.4699707 89.55541992 C4.5625 89.3125 4.5625 89.3125 1.5625 87.3125 C1.5625 86.6525 1.5625 85.9925 1.5625 85.3125 C1.00304688 85.46847656 0.44359375 85.62445313 -0.1328125 85.78515625 C-8.80321702 87.89002937 -19.29172972 88.52234942 -27.4375 84.3125 C-29.88395237 80.64282144 -29.88383627 77.63733978 -30.0625 73.375 C-30.10117187 72.61952881 -30.13984375 71.86405762 -30.1796875 71.08569336 C-30.4416931 65.565446 -30.49661577 60.06107268 -30.375 54.53515625 C-30.28224288 52.27143426 -30.28224288 52.27143426 -31.4375 50.3125 C-31.58125422 46.93427584 -31.51286348 44.53859045 -30.4375 41.3125 C-30.7675 40.6525 -31.0975 39.9925 -31.4375 39.3125 C-31.76292291 34.88139335 -31.76205369 30.44156855 -31.8125 26 C-31.84988281 24.76314453 -31.88726563 23.52628906 -31.92578125 22.25195312 C-32.014502 13.12850283 -32.014502 13.12850283 -29.18359375 9.125 C-28.27738281 8.526875 -27.37117188 7.92875 -26.4375 7.3125 C-25.71949219 6.81363281 -25.00148438 6.31476562 -24.26171875 5.80078125 C-23.20404297 5.21876953 -23.20404297 5.21876953 -22.125 4.625 C-21.42761719 4.22925781 -20.73023438 3.83351562 -20.01171875 3.42578125 C-13.38841264 0.56137724 -7.11934018 -0.02873019 0 0 Z M-24.5 10.8125 C-26.74378583 13.18055832 -26.74378583 13.18055832 -26.4375 16.3125 C-19.55747829 18.93346065 -12.71573961 18.49420362 -5.4375 18.3125 C-5.4375 17.9825 -5.4375 17.6525 -5.4375 17.3125 C-6.25734375 17.26351562 -7.0771875 17.21453125 -7.921875 17.1640625 C-8.99953125 17.08929688 -10.0771875 17.01453125 -11.1875 16.9375 C-12.25484375 16.86789063 -13.3221875 16.79828125 -14.421875 16.7265625 C-17.23956432 16.3396777 -19.0205366 15.75563834 -21.4375 14.3125 C-21.1075 12.9925 -20.7775 11.6725 -20.4375 10.3125 C-19.7775 10.3125 -19.1175 10.3125 -18.4375 10.3125 C-18.4375 11.3025 -18.4375 12.2925 -18.4375 13.3125 C-12.4975 13.3125 -6.5575 13.3125 -0.4375 13.3125 C-0.1075 14.3025 0.2225 15.2925 0.5625 16.3125 C-1.0875 16.3125 -2.7375 16.3125 -4.4375 16.3125 C-4.4375 16.6425 -4.4375 16.9725 -4.4375 17.3125 C3.54459379 17.00371494 10.19352439 15.37696761 17.5625 12.3125 C17.5625 10.9925 17.5625 9.6725 17.5625 8.3125 C14.55632731 5.30632731 11.73868402 5.71664684 7.5625 5.3125 C10.33510299 7.25048263 10.33510299 7.25048263 12.5625 8.3125 C13.0575 9.7975 13.0575 9.7975 13.5625 11.3125 C11.8609375 10.6009375 11.8609375 10.6009375 10.125 9.875 C5.64951048 8.1776766 1.31537814 7.63155895 -3.4375 7.3125 C-3.4375 6.6525 -3.4375 5.9925 -3.4375 5.3125 C-11.50527901 4.92832005 -18.08119303 5.57265757 -24.5 10.8125 Z M13.5625 17.3125 C13.5625 19.9525 13.5625 22.5925 13.5625 25.3125 C15.53786745 24.96463292 15.53786745 24.96463292 17.5625 24.3125 C18.91689668 21.60370665 18.62751451 19.30316732 18.5625 16.3125 C16.84167076 16.3125 15.22021414 16.8847028 13.5625 17.3125 Z M5.5625 19.3125 C5.5625 21.6225 5.5625 23.9325 5.5625 26.3125 C6.5525 26.8075 6.5525 26.8075 7.5625 27.3125 C8.5525 26.9825 9.5425 26.6525 10.5625 26.3125 C10.5625 24.0025 10.5625 21.6925 10.5625 19.3125 C8.9125 19.3125 7.2625 19.3125 5.5625 19.3125 Z M-27.4375 20.3125 C-27.18188677 22.6556213 -26.84479228 24.99093403 -26.4375 27.3125 C-25.7775 27.6425 -25.1175 27.9725 -24.4375 28.3125 C-24.69311323 25.9693787 -25.03020772 23.63406597 -25.4375 21.3125 C-26.0975 20.9825 -26.7575 20.6525 -27.4375 20.3125 Z M-2.4375 21.3125 C-2.1075 23.2925 -1.7775 25.2725 -1.4375 27.3125 C-0.1175 27.3125 1.2025 27.3125 2.5625 27.3125 C2.5625 25.3325 2.5625 23.3525 2.5625 21.3125 C0.9125 21.3125 -0.7375 21.3125 -2.4375 21.3125 Z M-21.4375 22.3125 C-21.4375 24.6225 -21.4375 26.9325 -21.4375 29.3125 C-20.7775 29.3125 -20.1175 29.3125 -19.4375 29.3125 C-19.7675 27.0025 -20.0975 24.6925 -20.4375 22.3125 C-20.7675 22.3125 -21.0975 22.3125 -21.4375 22.3125 Z M-16.4375 22.3125 C-16.4375 24.2925 -16.4375 26.2725 -16.4375 28.3125 C-13.9625 28.8075 -13.9625 28.8075 -11.4375 29.3125 C-11.7675 27.0025 -12.0975 24.6925 -12.4375 22.3125 C-13.7575 22.3125 -15.0775 22.3125 -16.4375 22.3125 Z M-8.4375 22.3125 C-8.4375 24.2925 -8.4375 26.2725 -8.4375 28.3125 C-7.1175 28.3125 -5.7975 28.3125 -4.4375 28.3125 C-4.7675 26.3325 -5.0975 24.3525 -5.4375 22.3125 C-6.4275 22.3125 -7.4175 22.3125 -8.4375 22.3125 Z M16.5625 29.3125 C16.5625 31.2925 16.5625 33.2725 16.5625 35.3125 C17.5525 34.9825 18.5425 34.6525 19.5625 34.3125 C19.5625 32.3325 19.5625 30.3525 19.5625 28.3125 C18.3388932 28.2379644 18.3388932 28.2379644 16.5625 29.3125 Z M10.5625 30.3125 C10.5625 32.6225 10.5625 34.9325 10.5625 37.3125 C11.5525 36.9825 12.5425 36.6525 13.5625 36.3125 C13.5625 34.3325 13.5625 32.3525 13.5625 30.3125 C12.5725 30.3125 11.5825 30.3125 10.5625 30.3125 Z M-3.4375 32.3125 C-3.64720559 36.45343698 -3.64720559 36.45343698 -2.4375 40.3125 C-1.4475 39.9825 -0.4575 39.6525 0.5625 39.3125 C0.5625 36.6725 0.5625 34.0325 0.5625 31.3125 C-1.5120356 31.1634288 -1.5120356 31.1634288 -3.4375 32.3125 Z M3.5625 31.3125 C3.5625 33.9525 3.5625 36.5925 3.5625 39.3125 C4.8825 38.9825 6.2025 38.6525 7.5625 38.3125 C7.2325 36.0025 6.9025 33.6925 6.5625 31.3125 C5.5725 31.3125 4.5825 31.3125 3.5625 31.3125 Z M-9.4375 32.3125 C-9.7675 32.6425 -10.0975 32.9725 -10.4375 33.3125 C-10.3356629 35.22674457 -10.3356629 35.22674457 -10 37.375 C-9.814375 38.674375 -9.62875 39.97375 -9.4375 41.3125 C-8.4475 40.9825 -7.4575 40.6525 -6.4375 40.3125 C-6.22779441 36.17156302 -6.22779441 36.17156302 -7.4375 32.3125 C-8.0975 32.3125 -8.7575 32.3125 -9.4375 32.3125 Z M-23.4375 33.3125 C-23.1075 35.9525 -22.7775 38.5925 -22.4375 41.3125 C-21.7775 41.3125 -21.1175 41.3125 -20.4375 41.3125 C-20.69311323 38.9693787 -21.03020772 36.63406597 -21.4375 34.3125 C-22.0975 33.9825 -22.7575 33.6525 -23.4375 33.3125 Z M-27.4375 34.3125 C-26.4375 37.3125 -26.4375 37.3125 -26.4375 37.3125 Z M-18.4375 35.3125 C-17.7775 37.2925 -17.1175 39.2725 -16.4375 41.3125 C-15.4475 41.3125 -14.4575 41.3125 -13.4375 41.3125 C-13.4375 38.6725 -13.4375 36.0325 -13.4375 33.3125 C-15.76107511 33.12759993 -15.76107511 33.12759993 -18.4375 35.3125 Z M4.5625 42.3125 C4.5625 43.3025 4.5625 44.2925 4.5625 45.3125 C5.8825 44.9825 7.2025 44.6525 8.5625 44.3125 C8.5625 43.6525 8.5625 42.9925 8.5625 42.3125 C7.2425 42.3125 5.9225 42.3125 4.5625 42.3125 Z M-0.4375 43.3125 C-1.85327477 44.49674326 -1.85327477 44.49674326 -1.5 47.875 C-1.479375 49.009375 -1.45875 50.14375 -1.4375 51.3125 C-0.4475 51.3125 0.5425 51.3125 1.5625 51.3125 C2.65908936 48.02273192 2.36203138 46.59946233 1.5625 43.3125 C0.9025 43.3125 0.2425 43.3125 -0.4375 43.3125 Z M12.5625 47.3125 C13.2225 47.3125 13.8825 47.3125 14.5625 47.3125 C14.5625 47.9725 14.5625 48.6325 14.5625 49.3125 C22.32390859 51.8996362 30.74289459 49.794388 38.5625 48.3125 C38.5625 49.3025 38.5625 50.2925 38.5625 51.3125 C37.5725 51.8075 37.5725 51.8075 36.5625 52.3125 C42.21644631 52.65865998 45.59256806 51.74675238 50.5625 49.3125 C49.9025 47.9925 49.2425 46.6725 48.5625 45.3125 C47.9025 45.6425 47.2425 45.9725 46.5625 46.3125 C43.16257169 47.48488907 41.0435183 47.00870366 37.5625 46.3125 C34.56056695 46.22153233 31.56491789 46.25362906 28.5625 46.3125 C28.5625 45.3225 28.5625 44.3325 28.5625 43.3125 C23.06309292 43.03752965 16.62772173 43.24727827 12.5625 47.3125 Z M-26.4375 44.3125 C-27.44861093 47.36163228 -27.44861093 47.36163228 -26.4375 50.3125 C-25.7775 49.9825 -25.1175 49.6525 -24.4375 49.3125 C-24.7675 47.6625 -25.0975 46.0125 -25.4375 44.3125 C-25.7675 44.3125 -26.0975 44.3125 -26.4375 44.3125 Z M-8.4375 44.3125 C-8.1075 46.6225 -7.7775 48.9325 -7.4375 51.3125 C-6.4475 51.3125 -5.4575 51.3125 -4.4375 51.3125 C-4.4375 49.0025 -4.4375 46.6925 -4.4375 44.3125 C-5.7575 44.3125 -7.0775 44.3125 -8.4375 44.3125 Z M-21.4375 45.3125 C-21.4375 47.2925 -21.4375 49.2725 -21.4375 51.3125 C-20.1175 51.3125 -18.7975 51.3125 -17.4375 51.3125 C-17.4375 49.3325 -17.4375 47.3525 -17.4375 45.3125 C-18.7575 45.3125 -20.0775 45.3125 -21.4375 45.3125 Z M-14.4375 45.3125 C-14.4375 47.2925 -14.4375 49.2725 -14.4375 51.3125 C-13.1175 50.9825 -11.7975 50.6525 -10.4375 50.3125 C-10.7675 48.6625 -11.0975 47.0125 -11.4375 45.3125 C-12.4275 45.3125 -13.4175 45.3125 -14.4375 45.3125 Z M6.5625 49.3125 C6.82926204 51.29741642 6.82926204 51.29741642 7.5625 53.3125 C10.44515149 54.27338383 12.23912271 54.42920941 15.23046875 54.41015625 C16.12314453 54.40693359 17.01582031 54.40371094 17.93554688 54.40039062 C18.86431641 54.39201172 19.79308594 54.38363281 20.75 54.375 C22.16055664 54.36823242 22.16055664 54.36823242 23.59960938 54.36132812 C25.92063712 54.34954626 28.24153644 54.33309558 30.5625 54.3125 C30.5625 53.9825 30.5625 53.6525 30.5625 53.3125 C24.6225 52.9825 18.6825 52.6525 12.5625 52.3125 C12.2325 50.6625 11.9025 49.0125 11.5625 47.3125 C9.23892489 47.12759993 9.23892489 47.12759993 6.5625 49.3125 Z M30.5625 52.3125 C30.5625 52.6425 30.5625 52.9725 30.5625 53.3125 C32.5425 53.3125 34.5225 53.3125 36.5625 53.3125 C36.5625 52.9825 36.5625 52.6525 36.5625 52.3125 C34.5825 52.3125 32.6025 52.3125 30.5625 52.3125 Z M-23.4375 55.3125 C-23.4375 56.9625 -23.4375 58.6125 -23.4375 60.3125 C-22.4475 60.8075 -22.4475 60.8075 -21.4375 61.3125 C-21.4375 59.3325 -21.4375 57.3525 -21.4375 55.3125 C-22.0975 55.3125 -22.7575 55.3125 -23.4375 55.3125 Z M-18.4375 55.3125 C-18.1075 57.2925 -17.7775 59.2725 -17.4375 61.3125 C-16.7775 61.3125 -16.1175 61.3125 -15.4375 61.3125 C-15.4375 59.3325 -15.4375 57.3525 -15.4375 55.3125 C-16.4275 55.3125 -17.4175 55.3125 -18.4375 55.3125 Z M-12.4375 55.3125 C-12.4375 57.2925 -12.4375 59.2725 -12.4375 61.3125 C-11.7775 61.3125 -11.1175 61.3125 -10.4375 61.3125 C-10.4375 59.6625 -10.4375 58.0125 -10.4375 56.3125 C-11.0975 55.9825 -11.7575 55.6525 -12.4375 55.3125 Z M-7.4375 55.3125 C-7.4375 56.9625 -7.4375 58.6125 -7.4375 60.3125 C-6.4475 60.3125 -5.4575 60.3125 -4.4375 60.3125 C-4.7675 58.6625 -5.0975 57.0125 -5.4375 55.3125 C-6.0975 55.3125 -6.7575 55.3125 -7.4375 55.3125 Z M-2.4375 55.3125 C-2.1075 56.6325 -1.7775 57.9525 -1.4375 59.3125 C-0.7775 59.3125 -0.1175 59.3125 0.5625 59.3125 C0.5625 57.9925 0.5625 56.6725 0.5625 55.3125 C-0.4275 55.3125 -1.4175 55.3125 -2.4375 55.3125 Z M44.5625 55.3125 C44.8925 56.6325 45.2225 57.9525 45.5625 59.3125 C45.8925 57.9925 46.2225 56.6725 46.5625 55.3125 C45.9025 55.3125 45.2425 55.3125 44.5625 55.3125 Z M4.5625 56.3125 C5.5625 60.3125 5.5625 60.3125 5.5625 60.3125 Z M38.5625 56.3125 C38.5625 57.9625 38.5625 59.6125 38.5625 61.3125 C39.2225 60.9825 39.8825 60.6525 40.5625 60.3125 C40.5625 58.9925 40.5625 57.6725 40.5625 56.3125 C39.9025 56.3125 39.2425 56.3125 38.5625 56.3125 Z M8.5625 57.3125 C8.5625 58.9625 8.5625 60.6125 8.5625 62.3125 C9.5525 62.3125 10.5425 62.3125 11.5625 62.3125 C11.2325 60.6625 10.9025 59.0125 10.5625 57.3125 C9.9025 57.3125 9.2425 57.3125 8.5625 57.3125 Z M33.5625 57.3125 C33.5625 58.9625 33.5625 60.6125 33.5625 62.3125 C33.8925 62.3125 34.2225 62.3125 34.5625 62.3125 C34.5625 60.6625 34.5625 59.0125 34.5625 57.3125 C34.2325 57.3125 33.9025 57.3125 33.5625 57.3125 Z M14.5625 58.3125 C14.5625 59.9625 14.5625 61.6125 14.5625 63.3125 C15.2225 63.3125 15.8825 63.3125 16.5625 63.3125 C16.2325 61.6625 15.9025 60.0125 15.5625 58.3125 C15.2325 58.3125 14.9025 58.3125 14.5625 58.3125 Z M26.5625 58.3125 C26.5625 59.6325 26.5625 60.9525 26.5625 62.3125 C27.8825 61.9825 29.2025 61.6525 30.5625 61.3125 C30.5625 60.3225 30.5625 59.3325 30.5625 58.3125 C29.2425 58.3125 27.9225 58.3125 26.5625 58.3125 Z M19.5625 59.3125 C19.5625 60.6325 19.5625 61.9525 19.5625 63.3125 C20.5525 63.3125 21.5425 63.3125 22.5625 63.3125 C22.5625 61.6625 22.5625 60.0125 22.5625 58.3125 C21.3388932 58.2379644 21.3388932 58.2379644 19.5625 59.3125 Z M-0.4375 63.3125 C-0.1075 64.3025 0.2225 65.2925 0.5625 66.3125 C0.8925 65.3225 1.2225 64.3325 1.5625 63.3125 C0.9025 63.3125 0.2425 63.3125 -0.4375 63.3125 Z M-25.4375 64.3125 C-25.7675 65.9625 -26.0975 67.6125 -26.4375 69.3125 C-25.4475 69.8075 -25.4475 69.8075 -24.4375 70.3125 C-24.4375 68.3325 -24.4375 66.3525 -24.4375 64.3125 C-24.7675 64.3125 -25.0975 64.3125 -25.4375 64.3125 Z M-21.4375 64.3125 C-21.4375 66.6225 -21.4375 68.9325 -21.4375 71.3125 C-20.7775 71.3125 -20.1175 71.3125 -19.4375 71.3125 C-19.4375 69.0025 -19.4375 66.6925 -19.4375 64.3125 C-20.0975 64.3125 -20.7575 64.3125 -21.4375 64.3125 Z M-15.4375 64.3125 C-15.7675 64.6425 -16.0975 64.9725 -16.4375 65.3125 C-16.15019945 67.65194736 -15.81813221 69.9864143 -15.4375 72.3125 C-14.7775 72.3125 -14.1175 72.3125 -13.4375 72.3125 C-13.7675 69.6725 -14.0975 67.0325 -14.4375 64.3125 C-14.7675 64.3125 -15.0975 64.3125 -15.4375 64.3125 Z M-10.4375 64.3125 C-11.86838528 67.17427057 -11.03741697 69.24625773 -10.4375 72.3125 C-9.7775 72.3125 -9.1175 72.3125 -8.4375 72.3125 C-8.7675 69.6725 -9.0975 67.0325 -9.4375 64.3125 C-9.7675 64.3125 -10.0975 64.3125 -10.4375 64.3125 Z M-6.4375 64.3125 C-6.1075 66.6225 -5.7775 68.9325 -5.4375 71.3125 C-4.7775 71.3125 -4.1175 71.3125 -3.4375 71.3125 C-3.4375 69.0025 -3.4375 66.6925 -3.4375 64.3125 C-4.4275 64.3125 -5.4175 64.3125 -6.4375 64.3125 Z M40.5625 64.3125 C40.5625 66.6225 40.5625 68.9325 40.5625 71.3125 C41.5525 71.3125 42.5425 71.3125 43.5625 71.3125 C43.5625 69.0025 43.5625 66.6925 43.5625 64.3125 C42.5725 64.3125 41.5825 64.3125 40.5625 64.3125 Z M4.5625 66.3125 C4.2325 67.9625 3.9025 69.6125 3.5625 71.3125 C4.5525 71.8075 4.5525 71.8075 5.5625 72.3125 C5.5625 70.3325 5.5625 68.3525 5.5625 66.3125 C5.2325 66.3125 4.9025 66.3125 4.5625 66.3125 Z M8.5625 66.3125 C8.5625 68.6225 8.5625 70.9325 8.5625 73.3125 C9.2225 73.3125 9.8825 73.3125 10.5625 73.3125 C10.5625 71.0025 10.5625 68.6925 10.5625 66.3125 C9.9025 66.3125 9.2425 66.3125 8.5625 66.3125 Z M26.5625 66.3125 C26.5625 68.6225 26.5625 70.9325 26.5625 73.3125 C27.8825 73.3125 29.2025 73.3125 30.5625 73.3125 C30.5625 71.0025 30.5625 68.6925 30.5625 66.3125 C29.2425 66.3125 27.9225 66.3125 26.5625 66.3125 Z M35.5625 65.3125 C33.27521266 67.15133881 33.27521266 67.15133881 33.4375 69.9375 C33.47875 70.72125 33.52 71.505 33.5625 72.3125 C34.5525 72.3125 35.5425 72.3125 36.5625 72.3125 C36.5625 70.0025 36.5625 67.6925 36.5625 65.3125 C36.2325 65.3125 35.9025 65.3125 35.5625 65.3125 Z M13.5625 67.3125 C13.8925 69.2925 14.2225 71.2725 14.5625 73.3125 C15.2225 73.3125 15.8825 73.3125 16.5625 73.3125 C16.5625 71.3325 16.5625 69.3525 16.5625 67.3125 C15.5725 67.3125 14.5825 67.3125 13.5625 67.3125 Z M19.5625 67.3125 C19.5625 69.2925 19.5625 71.2725 19.5625 73.3125 C20.8825 72.9825 22.2025 72.6525 23.5625 72.3125 C23.2325 70.6625 22.9025 69.0125 22.5625 67.3125 C21.5725 67.3125 20.5825 67.3125 19.5625 67.3125 Z M46.5625 68.3125 C47.5625 70.3125 47.5625 70.3125 47.5625 70.3125 Z M-25.4375 75.3125 C-25.1075 77.2925 -24.7775 79.2725 -24.4375 81.3125 C-24.1075 81.3125 -23.7775 81.3125 -23.4375 81.3125 C-23.4375 79.3325 -23.4375 77.3525 -23.4375 75.3125 C-24.0975 75.3125 -24.7575 75.3125 -25.4375 75.3125 Z M-20.4375 75.3125 C-20.4375 77.2925 -20.4375 79.2725 -20.4375 81.3125 C-19.4475 81.8075 -19.4475 81.8075 -18.4375 82.3125 C-18.4375 80.0025 -18.4375 77.6925 -18.4375 75.3125 C-19.0975 75.3125 -19.7575 75.3125 -20.4375 75.3125 Z M-3.4375 75.3125 C-3.4375 77.2925 -3.4375 79.2725 -3.4375 81.3125 C-2.4475 81.8075 -2.4475 81.8075 -1.4375 82.3125 C-1.7675 80.0025 -2.0975 77.6925 -2.4375 75.3125 C-2.7675 75.3125 -3.0975 75.3125 -3.4375 75.3125 Z M40.5625 75.3125 C40.5625 77.9525 40.5625 80.5925 40.5625 83.3125 C40.8925 83.3125 41.2225 83.3125 41.5625 83.3125 C41.5625 80.6725 41.5625 78.0325 41.5625 75.3125 C41.2325 75.3125 40.9025 75.3125 40.5625 75.3125 Z M44.5625 75.3125 C44.5625 77.6225 44.5625 79.9325 44.5625 82.3125 C44.8925 82.3125 45.2225 82.3125 45.5625 82.3125 C45.5625 80.0025 45.5625 77.6925 45.5625 75.3125 C45.2325 75.3125 44.9025 75.3125 44.5625 75.3125 Z M-15.4375 76.3125 C-15.1075 78.2925 -14.7775 80.2725 -14.4375 82.3125 C-14.1075 82.3125 -13.7775 82.3125 -13.4375 82.3125 C-13.4375 80.3325 -13.4375 78.3525 -13.4375 76.3125 C-14.0975 76.3125 -14.7575 76.3125 -15.4375 76.3125 Z M-10.4375 76.3125 C-10.1075 78.2925 -9.7775 80.2725 -9.4375 82.3125 C-8.4475 82.3125 -7.4575 82.3125 -6.4375 82.3125 C-6.7675 80.3325 -7.0975 78.3525 -7.4375 76.3125 C-8.4275 76.3125 -9.4175 76.3125 -10.4375 76.3125 Z M34.5625 76.3125 C34.8925 78.9525 35.2225 81.5925 35.5625 84.3125 C36.2225 83.9825 36.8825 83.6525 37.5625 83.3125 C37.5625 81.0025 37.5625 78.6925 37.5625 76.3125 C36.5725 76.3125 35.5825 76.3125 34.5625 76.3125 Z M7.5625 77.3125 C7.5625 79.6225 7.5625 81.9325 7.5625 84.3125 C8.5525 84.6425 9.5425 84.9725 10.5625 85.3125 C10.5625 82.6725 10.5625 80.0325 10.5625 77.3125 C9.5725 77.3125 8.5825 77.3125 7.5625 77.3125 Z M13.5625 77.3125 C13.5625 79.9525 13.5625 82.5925 13.5625 85.3125 C14.8825 84.9825 16.2025 84.6525 17.5625 84.3125 C17.2325 82.0025 16.9025 79.6925 16.5625 77.3125 C15.5725 77.3125 14.5825 77.3125 13.5625 77.3125 Z M20.5625 77.3125 C20.5625 79.9525 20.5625 82.5925 20.5625 85.3125 C22.2125 85.3125 23.8625 85.3125 25.5625 85.3125 C25.2325 82.6725 24.9025 80.0325 24.5625 77.3125 C23.2425 77.3125 21.9225 77.3125 20.5625 77.3125 Z M27.5625 77.3125 C27.8925 79.9525 28.2225 82.5925 28.5625 85.3125 C29.5525 85.3125 30.5425 85.3125 31.5625 85.3125 C31.5625 82.6725 31.5625 80.0325 31.5625 77.3125 C30.2425 77.3125 28.9225 77.3125 27.5625 77.3125 Z " fill="#E7E9ED" transform="translate(34.4375,39.6875)"/>
<path d="M0 0 C0.79470703 -0.01611328 1.58941406 -0.03222656 2.40820312 -0.04882812 C9.23596622 -0.05438367 15.81518906 0.96723456 21.125 5.5 C23.0968142 9.35789736 22.85392371 12.01400032 22.5625 16.3125 C20.43741756 13.12487635 20.0604837 11.04737777 19.5625 7.3125 C18.9025 7.9725 18.2425 8.6325 17.5625 9.3125 C16.9025 8.6525 16.2425 7.9925 15.5625 7.3125 C14.5725 7.3125 13.5825 7.3125 12.5625 7.3125 C13.0575 9.2925 13.0575 9.2925 13.5625 11.3125 C12.428125 11.003125 11.29375 10.69375 10.125 10.375 C6.20605647 9.37426978 2.37743249 8.93273551 -1.65234375 8.65625 C-2.24144531 8.5428125 -2.83054687 8.429375 -3.4375 8.3125 C-3.7675 7.6525 -4.0975 6.9925 -4.4375 6.3125 C-10.79675444 5.96563158 -15.51594126 7.05833661 -21.4375 9.3125 C-22.4275 9.6425 -23.4175 9.9725 -24.4375 10.3125 C-25.66270264 13.32097418 -25.66270264 13.32097418 -26.4375 16.3125 C-23.4675 16.6425 -20.4975 16.9725 -17.4375 17.3125 C-19.0875 16.3225 -20.7375 15.3325 -22.4375 14.3125 C-22.1075 12.9925 -21.7775 11.6725 -21.4375 10.3125 C-20.1175 10.3125 -18.7975 10.3125 -17.4375 10.3125 C-17.4375 10.9725 -17.4375 11.6325 -17.4375 12.3125 C-11.8275 12.3125 -6.2175 12.3125 -0.4375 12.3125 C0.5625 17.3125 0.5625 17.3125 0.5625 20.3125 C-2.0775 20.3125 -4.7175 20.3125 -7.4375 20.3125 C-5.7875 20.6425 -4.1375 20.9725 -2.4375 21.3125 C-2.1075 23.2925 -1.7775 25.2725 -1.4375 27.3125 C-0.1175 27.3125 1.2025 27.3125 2.5625 27.3125 C2.5625 25.0025 2.5625 22.6925 2.5625 20.3125 C3.5525 20.3125 4.5425 20.3125 5.5625 20.3125 C6.0575 23.7775 6.0575 23.7775 6.5625 27.3125 C4.15704362 28.51522819 2.61253047 28.41321472 -0.0625 28.375 C-1.28839844 28.36146484 -1.28839844 28.36146484 -2.5390625 28.34765625 C-3.16554688 28.33605469 -3.79203125 28.32445313 -4.4375 28.3125 C-4.7675 26.3325 -5.0975 24.3525 -5.4375 22.3125 C-6.4275 22.3125 -7.4175 22.3125 -8.4375 22.3125 C-8.4375 24.2925 -8.4375 26.2725 -8.4375 28.3125 C-9.0975 28.3125 -9.7575 28.3125 -10.4375 28.3125 C-10.4375 28.9725 -10.4375 29.6325 -10.4375 30.3125 C-10.4375 30.6425 -10.4375 30.9725 -10.4375 31.3125 C-10.27547756 33.16707826 -10.10796632 35.0211788 -9.9375 36.875 C-9.8446875 37.88691406 -9.751875 38.89882812 -9.65625 39.94140625 C-9.5840625 40.72386719 -9.511875 41.50632813 -9.4375 42.3125 C-10.4275 42.3125 -11.4175 42.3125 -12.4375 42.3125 C-12.7675 42.9725 -13.0975 43.6325 -13.4375 44.3125 C-11.7875 44.6425 -10.1375 44.9725 -8.4375 45.3125 C-8.4375 47.2925 -8.4375 49.2725 -8.4375 51.3125 C-10.4175 51.8075 -10.4175 51.8075 -12.4375 52.3125 C-12.1075 50.0025 -11.7775 47.6925 -11.4375 45.3125 C-12.4275 45.3125 -13.4175 45.3125 -14.4375 45.3125 C-14.39625 46.26125 -14.355 47.21 -14.3125 48.1875 C-14.4375 51.3125 -14.4375 51.3125 -16.4375 53.3125 C-18.5625 53.9375 -18.5625 53.9375 -20.4375 54.3125 C-19.4475 54.6425 -18.4575 54.9725 -17.4375 55.3125 C-18.0975 57.6225 -18.7575 59.9325 -19.4375 62.3125 C-20.0975 62.3125 -20.7575 62.3125 -21.4375 62.3125 C-21.4375 60.0025 -21.4375 57.6925 -21.4375 55.3125 C-22.0975 55.3125 -22.7575 55.3125 -23.4375 55.3125 C-23.251875 56.26125 -23.06625 57.21 -22.875 58.1875 C-22.4375 61.3125 -22.4375 61.3125 -23.4375 63.3125 C-22.261875 63.250625 -22.261875 63.250625 -21.0625 63.1875 C-18.4375 63.3125 -18.4375 63.3125 -16.4375 65.3125 C-16.03702556 67.63525177 -15.6977896 69.96989357 -15.4375 72.3125 C-14.7775 72.3125 -14.1175 72.3125 -13.4375 72.3125 C-13.7675 69.6725 -14.0975 67.0325 -14.4375 64.3125 C-13.1175 64.9725 -11.7975 65.6325 -10.4375 66.3125 C-10.4375 68.2925 -10.4375 70.2725 -10.4375 72.3125 C-9.7775 72.3125 -9.1175 72.3125 -8.4375 72.3125 C-8.9325 71.3225 -8.9325 71.3225 -9.4375 70.3125 C-9.477492 68.31289988 -9.48096799 66.31202758 -9.4375 64.3125 C-6.67526722 67.07473278 -6.85893709 69.51956617 -6.4375 73.3125 C-8.83341038 73.33962351 -11.22900957 73.3593982 -13.625 73.375 C-14.29853516 73.38337891 -14.97207031 73.39175781 -15.66601562 73.40039062 C-19.39184131 73.41856538 -22.8163042 73.20549392 -26.4375 72.3125 C-26.4375 72.9725 -26.4375 73.6325 -26.4375 74.3125 C-24.4575 74.6425 -22.4775 74.9725 -20.4375 75.3125 C-20.1075 77.2925 -19.7775 79.2725 -19.4375 81.3125 C-19.1075 79.3325 -18.7775 77.3525 -18.4375 75.3125 C-17.1175 76.6325 -15.7975 77.9525 -14.4375 79.3125 C-13.7775 78.3225 -13.1175 77.3325 -12.4375 76.3125 C-10.9525 77.3025 -10.9525 77.3025 -9.4375 78.3125 C-10.0975 80.2925 -10.7575 82.2725 -11.4375 84.3125 C-10.4475 85.3025 -9.4575 86.2925 -8.4375 87.3125 C-10.66722273 87.19784579 -12.89628753 87.07035234 -15.125 86.9375 C-16.36636719 86.86789063 -17.60773437 86.79828125 -18.88671875 86.7265625 C-22.17854938 86.34269666 -24.52303327 85.85637967 -27.4375 84.3125 C-29.88395237 80.64282144 -29.88383627 77.63733978 -30.0625 73.375 C-30.10117187 72.61952881 -30.13984375 71.86405762 -30.1796875 71.08569336 C-30.4416931 65.565446 -30.49661577 60.06107268 -30.375 54.53515625 C-30.28224288 52.27143426 -30.28224288 52.27143426 -31.4375 50.3125 C-31.58125422 46.93427584 -31.51286348 44.53859045 -30.4375 41.3125 C-30.7675 40.6525 -31.0975 39.9925 -31.4375 39.3125 C-31.76292291 34.88139335 -31.76205369 30.44156855 -31.8125 26 C-31.84988281 24.76314453 -31.88726563 23.52628906 -31.92578125 22.25195312 C-32.014502 13.12850283 -32.014502 13.12850283 -29.18359375 9.125 C-28.27738281 8.526875 -27.37117188 7.92875 -26.4375 7.3125 C-25.71949219 6.81363281 -25.00148438 6.31476562 -24.26171875 5.80078125 C-23.20404297 5.21876953 -23.20404297 5.21876953 -22.125 4.625 C-21.42761719 4.22925781 -20.73023438 3.83351562 -20.01171875 3.42578125 C-13.38841264 0.56137724 -7.11934018 -0.02873019 0 0 Z M-27.4375 20.3125 C-27.18188677 22.6556213 -26.84479228 24.99093403 -26.4375 27.3125 C-25.7775 27.6425 -25.1175 27.9725 -24.4375 28.3125 C-24.69311323 25.9693787 -25.03020772 23.63406597 -25.4375 21.3125 C-26.0975 20.9825 -26.7575 20.6525 -27.4375 20.3125 Z M-21.4375 22.3125 C-21.4375 24.6225 -21.4375 26.9325 -21.4375 29.3125 C-20.7775 29.3125 -20.1175 29.3125 -19.4375 29.3125 C-19.7675 27.0025 -20.0975 24.6925 -20.4375 22.3125 C-20.7675 22.3125 -21.0975 22.3125 -21.4375 22.3125 Z M-16.4375 22.3125 C-16.4375 24.2925 -16.4375 26.2725 -16.4375 28.3125 C-13.9625 28.8075 -13.9625 28.8075 -11.4375 29.3125 C-11.7675 27.0025 -12.0975 24.6925 -12.4375 22.3125 C-13.7575 22.3125 -15.0775 22.3125 -16.4375 22.3125 Z M-23.4375 33.3125 C-23.1075 35.9525 -22.7775 38.5925 -22.4375 41.3125 C-21.7775 41.3125 -21.1175 41.3125 -20.4375 41.3125 C-20.69311323 38.9693787 -21.03020772 36.63406597 -21.4375 34.3125 C-22.0975 33.9825 -22.7575 33.6525 -23.4375 33.3125 Z M-27.4375 34.3125 C-26.4375 37.3125 -26.4375 37.3125 -26.4375 37.3125 Z M-18.4375 35.3125 C-17.7775 37.2925 -17.1175 39.2725 -16.4375 41.3125 C-15.4475 41.3125 -14.4575 41.3125 -13.4375 41.3125 C-13.4375 38.6725 -13.4375 36.0325 -13.4375 33.3125 C-15.76107511 33.12759993 -15.76107511 33.12759993 -18.4375 35.3125 Z M-26.4375 44.3125 C-27.44861093 47.36163228 -27.44861093 47.36163228 -26.4375 50.3125 C-25.7775 49.9825 -25.1175 49.6525 -24.4375 49.3125 C-24.7675 47.6625 -25.0975 46.0125 -25.4375 44.3125 C-25.7675 44.3125 -26.0975 44.3125 -26.4375 44.3125 Z M-21.4375 45.3125 C-21.4375 47.2925 -21.4375 49.2725 -21.4375 51.3125 C-20.1175 51.3125 -18.7975 51.3125 -17.4375 51.3125 C-17.4375 49.3325 -17.4375 47.3525 -17.4375 45.3125 C-18.7575 45.3125 -20.0775 45.3125 -21.4375 45.3125 Z M-25.4375 64.3125 C-25.7675 65.9625 -26.0975 67.6125 -26.4375 69.3125 C-25.4475 69.8075 -25.4475 69.8075 -24.4375 70.3125 C-24.4375 68.3325 -24.4375 66.3525 -24.4375 64.3125 C-24.7675 64.3125 -25.0975 64.3125 -25.4375 64.3125 Z M-21.4375 64.3125 C-21.4375 66.6225 -21.4375 68.9325 -21.4375 71.3125 C-20.7775 71.3125 -20.1175 71.3125 -19.4375 71.3125 C-19.4375 69.0025 -19.4375 66.6925 -19.4375 64.3125 C-20.0975 64.3125 -20.7575 64.3125 -21.4375 64.3125 Z M-25.4375 75.3125 C-25.1075 77.2925 -24.7775 79.2725 -24.4375 81.3125 C-24.1075 81.3125 -23.7775 81.3125 -23.4375 81.3125 C-23.4375 79.3325 -23.4375 77.3525 -23.4375 75.3125 C-24.0975 75.3125 -24.7575 75.3125 -25.4375 75.3125 Z " fill="#DFE0E2" transform="translate(34.4375,39.6875)"/>
<path d="M0 0 C-0.99 1.485 -0.99 1.485 -2 3 C-2 3.99 -2 4.98 -2 6 C7.75010752 9.25003584 20.59626154 7.40348323 30.5625 5.6875 C31.26971191 5.56987305 31.97692383 5.45224609 32.70556641 5.33105469 C36.39872838 4.62093601 38.58059334 3.90817568 41 1 C41.66 1 42.32 1 43 1 C45.48983465 13.9382479 44.93615038 25.03470726 43 38 C42.01 38.33 41.02 38.66 40 39 C39.34 38.01 38.68 37.02 38 36 C38.66 35.67 39.32 35.34 40 35 C40.46523063 33.10466658 40.46523063 33.10466658 40.625 30.9375 C40.810625 28.9884375 40.810625 28.9884375 41 27 C36.92035719 28.30155006 36.92035719 28.30155006 33 30 C31.12620395 30.07033769 29.24998898 30.0843022 27.375 30.0625 C26.37210938 30.05347656 25.36921875 30.04445313 24.3359375 30.03515625 C23.56507812 30.02355469 22.79421875 30.01195313 22 30 C21.505 29.01 21.505 29.01 21 28 C21.33 27.34 21.66 26.68 22 26 C23.65 26 25.3 26 27 26 C26.505 23.03 26.505 23.03 26 20 C25.34 21.32 24.68 22.64 24 24 C23.01 23.67 22.02 23.34 21 23 C21 22.01 21 21.02 21 20 C19.741875 20.350625 18.48375 20.70125 17.1875 21.0625 C14.05283612 21.93609485 13.21717892 22.07239297 10 21 C10 22.98 10 24.96 10 27 C10.78375 26.938125 11.5675 26.87625 12.375 26.8125 C13.674375 26.9053125 13.674375 26.9053125 15 27 C15.66 27.99 16.32 28.98 17 30 C10.565 30.495 10.565 30.495 4 31 C3.67 32.32 3.34 33.64 3 35 C2.34 34.67 1.68 34.34 1 34 C1 33.01 1 32.02 1 31 C-0.98 30.67 -2.96 30.34 -5 30 C-5.495 32.475 -5.495 32.475 -6 35 C-6.66 34.67 -7.32 34.34 -8 34 C-7.9071875 32.576875 -7.9071875 32.576875 -7.8125 31.125 C-7.874375 30.09375 -7.93625 29.0625 -8 28 C-8.99 27.34 -9.98 26.68 -11 26 C-10.34 25.67 -9.68 25.34 -9 25 C-9 23.35 -9 21.7 -9 20 C-8.01 20 -7.02 20 -6 20 C-5.67 21.65 -5.34 23.3 -5 25 C-4.59250325 20.74268432 -4.59250325 20.74268432 -6.5 17.125 C-6.995 16.75375 -7.49 16.3825 -8 16 C-7.67 15.01 -7.34 14.02 -7 13 C-6.01 14.485 -6.01 14.485 -5 16 C-4.34 16 -3.68 16 -3 16 C-3.33 15.34 -3.66 14.68 -4 14 C-4.039992 12.00039988 -4.04346799 9.99952758 -4 8 C-4.99 8 -5.98 8 -7 8 C-6.67 6.02 -6.34 4.04 -6 2 C-6.66 1.67 -7.32 1.34 -8 1 C-2.25 -1.125 -2.25 -1.125 0 0 Z M35 9 C35.33 10.32 35.66 11.64 36 13 C36.33 11.68 36.66 10.36 37 9 C36.34 9 35.68 9 35 9 Z M29 10 C29 11.65 29 13.3 29 15 C29.66 14.67 30.32 14.34 31 14 C31 12.68 31 11.36 31 10 C30.34 10 29.68 10 29 10 Z M-1 11 C-1 12.65 -1 14.3 -1 16 C-0.01 16 0.98 16 2 16 C1.67 14.35 1.34 12.7 1 11 C0.34 11 -0.32 11 -1 11 Z M24 11 C24 12.65 24 14.3 24 16 C24.33 16 24.66 16 25 16 C25 14.35 25 12.7 25 11 C24.67 11 24.34 11 24 11 Z M5 12 C5 13.65 5 15.3 5 17 C5.66 17 6.32 17 7 17 C6.67 15.35 6.34 13.7 6 12 C5.67 12 5.34 12 5 12 Z M17 12 C17 13.32 17 14.64 17 16 C18.32 15.67 19.64 15.34 21 15 C21 14.01 21 13.02 21 12 C19.68 12 18.36 12 17 12 Z M10 13 C10 14.32 10 15.64 10 17 C10.99 17 11.98 17 13 17 C13 15.35 13 13.7 13 12 C11.7763932 11.9254644 11.7763932 11.9254644 10 13 Z M31 18 C31 20.31 31 22.62 31 25 C31.99 25 32.98 25 34 25 C34 22.69 34 20.38 34 18 C33.01 18 32.02 18 31 18 Z M-1 20 C-1 22.31 -1 24.62 -1 27 C-0.34 27 0.32 27 1 27 C1 24.69 1 22.38 1 20 C0.34 20 -0.32 20 -1 20 Z M4 21 C4.33 22.98 4.66 24.96 5 27 C5.66 27 6.32 27 7 27 C7 25.02 7 23.04 7 21 C6.01 21 5.02 21 4 21 Z M37 22 C38 24 38 24 38 24 Z " fill="#EBEDF1" transform="translate(44,86)"/>
<path d="M0 0 C0.99 0.33 1.98 0.66 3 1 C2.45379565 4.98449074 1.30731698 7.26417483 -1.125 10.4375 C-3.05849277 13.27453782 -3.95968438 14.60490696 -4.3125 18.0625 C-2.64532847 21.79378867 -0.27006989 24.2906612 2.6015625 27.16796875 C3.06304687 27.77253906 3.52453125 28.37710937 4 29 C3.67 29.99 3.34 30.98 3 32 C1.515 32.495 1.515 32.495 0 33 C-2.61173868 31.05805317 -4.93516293 28.88741635 -7.33203125 26.6875 C-9.91695226 24.70999685 -9.91695226 24.70999685 -13.14453125 25.05859375 C-16.07985335 26.02632648 -17.10118692 26.61046427 -18.875 29.0625 C-19.926875 30.5165625 -19.926875 30.5165625 -21 32 C-22.65 31.67 -24.3 31.34 -26 31 C-26.33 30.01 -26.66 29.02 -27 28 C-25.75 26.203125 -25.75 26.203125 -24 24.25 C-21.50602225 21.10943543 -21 20.43454968 -21 16.25 C-21.85268609 13.11785113 -21.85268609 13.11785113 -23.125 10.875 C-24.32398098 8.30575504 -23.74097443 6.66750795 -23 4 C-20 4 -20 4 -17.625 6 C-15.2089243 8.14080909 -15.2089243 8.14080909 -12.5625 8.5 C-7.28900617 7.4710256 -3.56184642 3.83583461 0 0 Z " fill="#F7F6FA" transform="translate(86,1)"/>
<path d="M0 0 C0.33 0.66 0.66 1.32 1 2 C1.99 2.33 2.98 2.66 4 3 C3.34 5.31 2.68 7.62 2 10 C1.34 10 0.68 10 0 10 C0 7.69 0 5.38 0 3 C-0.66 3 -1.32 3 -2 3 C-1.814375 3.94875 -1.62875 4.8975 -1.4375 5.875 C-1 9 -1 9 -2 11 C-1.21625 10.95875 -0.4325 10.9175 0.375 10.875 C3 11 3 11 5 13 C5.40047444 15.32275177 5.7397104 17.65739357 6 20 C6.66 20 7.32 20 8 20 C7.67 17.36 7.34 14.72 7 12 C8.32 12.66 9.64 13.32 11 14 C11 15.98 11 17.96 11 20 C11.66 20 12.32 20 13 20 C12.67 19.34 12.34 18.68 12 18 C11.960008 16.00039988 11.95653201 13.99952758 12 12 C14.76223278 14.76223278 14.57856291 17.20706617 15 21 C12.60408962 21.02712351 10.20849043 21.0468982 7.8125 21.0625 C7.13896484 21.07087891 6.46542969 21.07925781 5.77148438 21.08789062 C2.04565869 21.10606538 -1.3788042 20.89299392 -5 20 C-5 20.66 -5 21.32 -5 22 C-3.02 22.33 -1.04 22.66 1 23 C1.33 24.98 1.66 26.96 2 29 C2.33 27.02 2.66 25.04 3 23 C4.32 24.32 5.64 25.64 7 27 C7.66 26.01 8.32 25.02 9 24 C9.99 24.66 10.98 25.32 12 26 C11.34 27.98 10.68 29.96 10 32 C10.99 32.99 11.98 33.98 13 35 C10.77027727 34.88534579 8.54121247 34.75785234 6.3125 34.625 C5.07113281 34.55539063 3.82976563 34.48578125 2.55078125 34.4140625 C-0.74104938 34.03019666 -3.08553327 33.54387967 -6 32 C-7.9756562 29.03651571 -8.26376859 28.31979627 -8.4140625 24.98828125 C-8.47207031 23.85229492 -8.47207031 23.85229492 -8.53125 22.69335938 C-8.5621875 21.90767578 -8.593125 21.12199219 -8.625 20.3125 C-8.66367188 19.51521484 -8.70234375 18.71792969 -8.7421875 17.89648438 C-8.83632494 15.93136525 -8.91924632 13.9657146 -9 12 C-8.34 11.67 -7.68 11.34 -7 11 C-7.33 12.32 -7.66 13.64 -8 15 C-7.01 14.67 -6.02 14.34 -5 14 C-4.67 14.99 -4.34 15.98 -4 17 C-3.80090046 12.71935998 -4.35034225 9.91793715 -6 6 C-6 4.68 -6 3.36 -6 2 C-4.02 2 -2.04 2 0 2 C0 1.34 0 0.68 0 0 Z M0 12 C0 14.31 0 16.62 0 19 C0.66 19 1.32 19 2 19 C2 16.69 2 14.38 2 12 C1.34 12 0.68 12 0 12 Z M-4 23 C-3.67 24.98 -3.34 26.96 -3 29 C-2.67 29 -2.34 29 -2 29 C-2 27.02 -2 25.04 -2 23 C-2.66 23 -3.32 23 -4 23 Z " fill="#DBDCDF" transform="translate(13,92)"/>
<path d="M0 0 C0.99 0.33 1.98 0.66 3 1 C3 1.66 3 2.32 3 3 C8.61 3 14.22 3 20 3 C21 8 21 8 21 11 C18.36 11 15.72 11 13 11 C15.475 11.495 15.475 11.495 18 12 C18.33 13.98 18.66 15.96 19 18 C20.32 18 21.64 18 23 18 C23 15.69 23 13.38 23 11 C23.99 11 24.98 11 26 11 C26.495 14.465 26.495 14.465 27 18 C24.59454362 19.20272819 23.05003047 19.10071472 20.375 19.0625 C19.14910156 19.04896484 19.14910156 19.04896484 17.8984375 19.03515625 C17.27195312 19.02355469 16.64546875 19.01195313 16 19 C15.67 17.02 15.34 15.04 15 13 C14.01 13 13.02 13 12 13 C12 14.98 12 16.96 12 19 C11.34 19 10.68 19 10 19 C10 19.66 10 20.32 10 21 C5.7617491 23.11912545 0.88187654 22.25196473 -3.5 21 C-4.325 20.67 -5.15 20.34 -6 20 C-5.505 18.515 -5.505 18.515 -5 17 C-4.96125079 15.33378384 -4.9549714 13.66605828 -5 12 C-3.02 12.495 -3.02 12.495 -1 13 C-1 15.31 -1 17.62 -1 20 C-0.34 20 0.32 20 1 20 C0.67 17.69 0.34 15.38 0 13 C1.32 13 2.64 13 4 13 C4.33 14.98 4.66 16.96 5 19 C6.32 19.33 7.64 19.66 9 20 C8.39816251 17.97954558 7.72693904 15.97888961 7 14 C6.34 13.67 5.68 13.34 5 13 C6 12 6 12 8.5625 11.9375 C9.366875 11.958125 10.17125 11.97875 11 12 C11 11.34 11 10.68 11 10 C10.236875 10.20625 9.47375 10.4125 8.6875 10.625 C3.57647011 11.14476575 -1.00953311 10.07445995 -6 9 C-6 8.34 -6 7.68 -6 7 C-3.03 7.33 -0.06 7.66 3 8 C1.35 7.01 -0.3 6.02 -2 5 C-1.125 1.125 -1.125 1.125 0 0 Z " fill="#D9DBDE" transform="translate(14,49)"/>
<path d="M0 0 C0.99 0 1.98 0 3 0 C3.35443365 4.25320385 2.49290822 5.67612238 0 9 C-0.58333333 11.5 -0.58333333 11.5 0 14 C0.680625 14.680625 1.36125 15.36125 2.0625 16.0625 C2.701875 16.701875 3.34125 17.34125 4 18 C3.75 20.25 3.75 20.25 3 22 C1.3125 22.8125 1.3125 22.8125 -1 23 C-3.75 20.5625 -3.75 20.5625 -6 18 C-8.27292941 19.01889939 -9.83024561 19.80902631 -11.5 21.6875 C-11.995 22.120625 -12.49 22.55375 -13 23 C-15.1875 22.6875 -15.1875 22.6875 -17 22 C-17.28066557 18.72556837 -17.20069626 17.30876347 -15.375 14.5 C-14.92125 13.675 -14.4675 12.85 -14 12 C-14.75285597 9.40952023 -14.75285597 9.40952023 -16 7 C-16 5.68 -16 4.36 -16 3 C-14.25 2.3125 -14.25 2.3125 -12 2 C-11.360625 2.515625 -10.72125 3.03125 -10.0625 3.5625 C-9.0415625 4.2740625 -9.0415625 4.2740625 -8 5 C-5.12356097 4.2984295 -3.46939 3.46939 -1.375 1.375 C-0.92125 0.92125 -0.4675 0.4675 0 0 Z " fill="#F5F6F7" transform="translate(118,47)"/>
<path d="M0 0 C0.99 0.33 1.98 0.66 3 1 C2.59070739 3.94690683 2.23923904 5.69635044 0.375 8.0625 C-1.19975086 9.86771332 -1.19975086 9.86771332 -0.9375 11.9375 C0.30298858 14.66657487 2.05176005 16.7375278 4 19 C3.34 20.32 2.68 21.64 2 23 C-1.87132028 22.42647107 -4.08172796 20.51295648 -7 18 C-7.9075 18.845625 -8.815 19.69125 -9.75 20.5625 C-12.67025483 23.02603251 -12.67025483 23.02603251 -15.375 22.8125 C-17 22 -17 22 -17.6875 20.25 C-18 18 -18 18 -16.5625 16.0625 C-16.046875 15.381875 -15.53125 14.70125 -15 14 C-14.66574265 11.37374861 -14.66574265 11.37374861 -15 9 C-15.33 8.67 -15.66 8.34 -16 8 C-16.04063832 6.33382885 -16.042721 4.66611905 -16 3 C-14.35 3 -12.7 3 -11 3 C-11 3.66 -11 4.32 -11 5 C-5.84001623 4.62590749 -5.84001623 4.62590749 -1.5625 1.9375 C-1.046875 1.298125 -0.53125 0.65875 0 0 Z " fill="#F3F3F5" transform="translate(123,13)"/>
<path d="M0 0 C0 1.98 0 3.96 0 6 C0.66 6.33 1.32 6.66 2 7 C1.67 5.35 1.34 3.7 1 2 C1.99 2 2.98 2 4 2 C5 3 5 3 5.4375 6.5 C5.623125 7.655 5.80875 8.81 6 10 C6.66 10.33 7.32 10.66 8 11 C8 9.35 8 7.7 8 6 C8.66 5.67 9.32 5.34 10 5 C11.32075472 10.28301887 11.32075472 10.28301887 9.9375 13.375 C8 15 8 15 5 15.375 C2 15 2 15 -1 13 C-1 12.34 -1 11.68 -1 11 C-1.99 11.495 -1.99 11.495 -3 12 C-5.05859375 12.16796875 -5.05859375 12.16796875 -7.4375 12.1875 C-8.61119141 12.20876953 -8.61119141 12.20876953 -9.80859375 12.23046875 C-12 12 -12 12 -15 10 C-14.34 8.02 -13.68 6.04 -13 4 C-12.67 5.32 -12.34 6.64 -12 8 C-11.01 8 -10.02 8 -9 8 C-9.33 6.02 -9.66 4.04 -10 2 C-11.65 2.66 -13.3 3.32 -15 4 C-15 3.34 -15 2.68 -15 2 C-15.99 2 -16.98 2 -18 2 C-18.33 2.99 -18.66 3.98 -19 5 C-19.33 3.68 -19.66 2.36 -20 1 C-13.34362157 -0.23839599 -6.7528064 -0.09139136 0 0 Z M-6 1 C-6 2.98 -6 4.96 -6 7 C-5.01 7.495 -5.01 7.495 -4 8 C-4.33 5.69 -4.66 3.38 -5 1 C-5.33 1 -5.66 1 -6 1 Z " fill="#DCDEE2" transform="translate(37,114)"/>
<path d="M0 0 C1.2065625 0.0309375 1.2065625 0.0309375 2.4375 0.0625 C2.6328125 6.1171875 2.6328125 6.1171875 2.4375 8.0625 C1.7775 8.7225 1.1175 9.3825 0.4375 10.0625 C0.7675 10.7225 1.0975 11.3825 1.4375 12.0625 C-0.1436292 12.56942692 -1.72751383 13.06776443 -3.3125 13.5625 C-4.19421875 13.8409375 -5.0759375 14.119375 -5.984375 14.40625 C-8.5625 15.0625 -8.5625 15.0625 -12.5625 15.0625 C-12.8925 14.0725 -13.2225 13.0825 -13.5625 12.0625 C-14.5525 11.4025 -15.5425 10.7425 -16.5625 10.0625 C-15.9025 8.7425 -15.2425 7.4225 -14.5625 6.0625 C-13.5725 7.3825 -12.5825 8.7025 -11.5625 10.0625 C-11.5625 8.0825 -11.5625 6.1025 -11.5625 4.0625 C-8.91251226 2.64286371 -6.47599184 1.76575665 -3.5625 1.0625 C-2.5625 0.0625 -2.5625 0.0625 0 0 Z M-3.5625 2.0625 C-3.5625 4.3725 -3.5625 6.6825 -3.5625 9.0625 C-3.2325 9.0625 -2.9025 9.0625 -2.5625 9.0625 C-2.5625 6.7525 -2.5625 4.4425 -2.5625 2.0625 C-2.8925 2.0625 -3.2225 2.0625 -3.5625 2.0625 Z " fill="#E0E2E7" transform="translate(82.5625,112.9375)"/>
<path d="M0 0 C0 3 0 3 -1.390625 4.5703125 C-2.31101562 5.33988281 -2.31101562 5.33988281 -3.25 6.125 C-3.85328125 6.64320312 -4.4565625 7.16140625 -5.078125 7.6953125 C-7.13416636 9.09108042 -8.53080065 9.73878729 -11 10 C-14.0625 8.1875 -14.0625 8.1875 -17 6 C-17.99 5.34 -18.98 4.68 -20 4 C-19.71125 4.58007812 -19.4225 5.16015625 -19.125 5.7578125 C-15.13746631 14.14824798 -15.13746631 14.14824798 -16 19 C-17.9524999 22.43370673 -20.06060974 25.35454877 -23 28 C-20.46195258 27.61330179 -19.26909965 27.29375538 -17.5078125 25.37109375 C-17.05148438 24.73300781 -16.59515625 24.09492188 -16.125 23.4375 C-14.03444709 20.91315736 -13.3427261 20.10430794 -10.125 19.125 C-5.44514442 20.43535956 -2.20867109 23.40042481 1 27 C1 27.66 1 28.32 1 29 C-1.58208246 27.8524078 -3.26928539 26.75197398 -5.375 24.8125 C-7.88060802 22.73779136 -7.88060802 22.73779136 -11 22.875 C-15.10035673 24.41263377 -16.45351941 26.47986506 -19 30 C-20.65 29.67 -22.3 29.34 -24 29 C-24.33 28.01 -24.66 27.02 -25 26 C-23.75 24.203125 -23.75 24.203125 -22 22.25 C-19.50602225 19.10943543 -19 18.43454968 -19 14.25 C-19.85268609 11.11785113 -19.85268609 11.11785113 -21.125 8.875 C-22.32398098 6.30575504 -21.74097443 4.66750795 -21 2 C-18 2 -18 2 -15.625 4 C-13.2089243 6.14080909 -13.2089243 6.14080909 -10.5625 6.5 C-6.20352072 5.64946746 -3.09027718 3.09027718 0 0 Z " fill="#E5E4E9" transform="translate(84,3)"/>
<path d="M0 0 C0.33 0.66 0.66 1.32 1 2 C4.76154738 3.25384913 7.10273139 2.64954477 11 2 C17.66666667 0.88888889 17.66666667 0.88888889 21 2 C20.38125 2.4125 19.7625 2.825 19.125 3.25 C16.93231719 5.05573879 16.07211583 6.4090534 15 9 C14.01 8.67 13.02 8.34 12 8 C12 7.01 12 6.02 12 5 C10.741875 5.350625 9.48375 5.70125 8.1875 6.0625 C5.05283612 6.93609485 4.21717892 7.07239297 1 6 C1 7.98 1 9.96 1 12 C1.78375 11.938125 2.5675 11.87625 3.375 11.8125 C4.24125 11.874375 5.1075 11.93625 6 12 C6.99 13.485 6.99 13.485 8 15 C7.25234375 15.06058594 6.5046875 15.12117188 5.734375 15.18359375 C4.74953125 15.26738281 3.7646875 15.35117188 2.75 15.4375 C1.28820312 15.55931641 1.28820312 15.55931641 -0.203125 15.68359375 C-2.56461753 15.95074584 -4.71901065 16.35371968 -7 17 C-7.1875 14.625 -7.1875 14.625 -7 12 C-6.01 11.34 -5.02 10.68 -4 10 C-4 10.66 -4 11.32 -4 12 C-3.34 12 -2.68 12 -2 12 C-2.02320313 11.38511719 -2.04640625 10.77023438 -2.0703125 10.13671875 C-2.08835937 9.32847656 -2.10640625 8.52023438 -2.125 7.6875 C-2.14820313 6.88699219 -2.17140625 6.08648437 -2.1953125 5.26171875 C-2 3 -2 3 0 0 Z " fill="#F2F4F8" transform="translate(53,101)"/>
<path d="M0 0 C2.56687367 3.8503105 1.83288724 5.58569763 1 10 C-0.65 10 -2.3 10 -4 10 C-4.33 8.68 -4.66 7.36 -5 6 C-5 7.65 -5 9.3 -5 11 C-2.03 11.495 -2.03 11.495 1 12 C1.33 14.97 1.66 17.94 2 21 C0.35 21.33 -1.3 21.66 -3 22 C-6 18.375 -6 18.375 -6 15 C-6.66 15 -7.32 15 -8 15 C-9.125 13.3125 -9.125 13.3125 -10 11 C-9.1144582 7.9006037 -8.28724116 6.28724116 -6 4 C-6 3.34 -6 2.68 -6 2 C-4.02 1.34 -2.04 0.68 0 0 Z M-3 19 C-2 21 -2 21 -2 21 Z " fill="#E6E9EC" transform="translate(84,89)"/>
<path d="M0 0 C0.99 0 1.98 0 3 0 C3.35443365 4.25320385 2.49290822 5.67612238 0 9 C-0.58333333 11.5 -0.58333333 11.5 0 14 C0.680625 14.680625 1.36125 15.36125 2.0625 16.0625 C2.701875 16.701875 3.34125 17.34125 4 18 C3.75 20.25 3.75 20.25 3 22 C1.68 22.33 0.36 22.66 -1 23 C-2.32 21.35 -3.64 19.7 -5 18 C-4.34 17.67 -3.68 17.34 -3 17 C-3 17.66 -3 18.32 -3 19 C-0.525 19.99 -0.525 19.99 2 21 C1.00063488 18.77064705 0.25828005 17.21854466 -1.625 15.625 C-3.6802674 13.19604762 -3.20441794 11.06626911 -3 8 C-2.01 7.67 -1.02 7.34 0 7 C0.73323796 4.98491642 0.73323796 4.98491642 1 3 C0.46375 3.639375 -0.0725 4.27875 -0.625 4.9375 C-3.47008544 7.40823209 -5.28317554 7.7575984 -9 8 C-9.66 7.67 -10.32 7.34 -11 7 C-11.66 8.32 -12.32 9.64 -13 11 C-15.62386487 7.93882432 -16 7.26826873 -16 3 C-14.25 2.3125 -14.25 2.3125 -12 2 C-11.360625 2.515625 -10.72125 3.03125 -10.0625 3.5625 C-9.0415625 4.2740625 -9.0415625 4.2740625 -8 5 C-5.12356097 4.2984295 -3.46939 3.46939 -1.375 1.375 C-0.92125 0.92125 -0.4675 0.4675 0 0 Z " fill="#E6E6E8" transform="translate(118,47)"/>
<path d="M0 0 C3.68285138 0.16740234 5.77355469 0.85231828 8.875 2.875 C11.98634727 7.45051069 11.4235284 11.62589517 11 17 C9.05841983 13.48375245 8.81688932 11.0284349 9 7 C6.525 6.505 6.525 6.505 4 6 C3.67 6.66 3.34 7.32 3 8 C0.03 7.67 -2.94 7.34 -6 7 C-6 6.34 -6 5.68 -6 5 C-8.475 4.01 -8.475 4.01 -11 3 C-11 2.67 -11 2.34 -11 2 C-10.28972656 1.93941406 -9.57945313 1.87882812 -8.84765625 1.81640625 C-7.46900391 1.69072266 -7.46900391 1.69072266 -6.0625 1.5625 C-5.14597656 1.48128906 -4.22945313 1.40007812 -3.28515625 1.31640625 C-1.03840268 1.23955024 -1.03840268 1.23955024 0 0 Z " fill="#E9EAEC" transform="translate(78,80)"/>
<path d="M0 0 C1.65 0.33 3.3 0.66 5 1 C5.33 2.98 5.66 4.96 6 7 C6.33 5.02 6.66 3.04 7 1 C8.32 2.32 9.64 3.64 11 5 C11.66 4.01 12.32 3.02 13 2 C13.99 2.66 14.98 3.32 16 4 C15.34 5.98 14.68 7.96 14 10 C14.99 10.99 15.98 11.98 17 13 C14.77027727 12.88534579 12.54121247 12.75785234 10.3125 12.625 C9.07113281 12.55539063 7.82976563 12.48578125 6.55078125 12.4140625 C3.30682228 12.03577906 0.93432815 11.38020024 -2 10 C-2 9.01 -2 8.02 -2 7 C-1.34 7.66 -0.68 8.32 0 9 C2.43252661 9.46162427 2.43252661 9.46162427 5.125 9.625 C6.03507813 9.69976562 6.94515625 9.77453125 7.8828125 9.8515625 C8.58148438 9.90054688 9.28015625 9.94953125 10 10 C8.41727399 8.41727399 6.61965997 8.65264253 4.4375 8.4375 C3.61121094 8.35371094 2.78492188 8.26992187 1.93359375 8.18359375 C1.29550781 8.12300781 0.65742188 8.06242187 0 8 C0.33 7.01 0.66 6.02 1 5 C1.34227417 3.66893378 1.67751743 2.33599921 2 1 C1.34 0.67 0.68 0.34 0 0 Z " fill="#D1D2D5" transform="translate(9,114)"/>
<path d="M0 0 C0 2.31 0 4.62 0 7 C-1.65 7.66 -3.3 8.32 -5 9 C-5 7.68 -5 6.36 -5 5 C-5.66 6.65 -6.32 8.3 -7 10 C-8.98 10 -10.96 10 -13 10 C-13.33 9.01 -13.66 8.02 -14 7 C-13.34 6.01 -12.68 5.02 -12 4 C-12 5.32 -12 6.64 -12 8 C-11.01 8 -10.02 8 -9 8 C-9.33 6.02 -9.66 4.04 -10 2 C-11.65 2.66 -13.3 3.32 -15 4 C-15 3.34 -15 2.68 -15 2 C-15.99 2 -16.98 2 -18 2 C-18.33 2.99 -18.66 3.98 -19 5 C-19.33 3.68 -19.66 2.36 -20 1 C-13.34362157 -0.23839599 -6.7528064 -0.09139136 0 0 Z " fill="#DADBE1" transform="translate(37,114)"/>
<path d="M0 0 C1.98 0.66 3.96 1.32 6 2 C5.01 2.495 5.01 2.495 4 3 C4 3.66 4 4.32 4 5 C1.44276771 6.27861615 -0.36737102 6.11336609 -3.2265625 6.09765625 C-4.2578125 6.09443359 -5.2890625 6.09121094 -6.3515625 6.08789062 C-7.97191406 6.07532227 -7.97191406 6.07532227 -9.625 6.0625 C-11.25695312 6.05573242 -11.25695312 6.05573242 -12.921875 6.04882812 C-15.61463789 6.03701776 -18.30729188 6.02054778 -21 6 C-20.34 4.68 -19.68 3.36 -19 2 C-18.27941406 2.185625 -17.55882812 2.37125 -16.81640625 2.5625 C-13.79784601 3.03140256 -11.88197832 2.72815538 -8.9375 2 C-5.538796 1.16210687 -3.34867139 0.88635409 0 2 C0 1.34 0 0.68 0 0 Z " fill="#EDEEF1" transform="translate(66,123)"/>
<path d="M0 0 C1.4540625 0.0309375 1.4540625 0.0309375 2.9375 0.0625 C2.6075 1.3825 2.2775 2.7025 1.9375 4.0625 C1.36386719 3.87429687 0.79023437 3.68609375 0.19921875 3.4921875 C-3.58842328 2.77260093 -6.81583361 4.09369773 -10.0625 6.0625 C-11.19690778 8.63330135 -11.19690778 8.63330135 -11.0625 11.0625 C-11.7225 11.0625 -12.3825 11.0625 -13.0625 11.0625 C-13.3925 9.4125 -13.7225 7.7625 -14.0625 6.0625 C-15.17625 6.3409375 -15.17625 6.3409375 -16.3125 6.625 C-19.01240963 7.05453108 -20.50881077 6.91372974 -23.0625 6.0625 C-22.7325 5.0725 -22.4025 4.0825 -22.0625 3.0625 C-21.11375 2.918125 -20.165 2.77375 -19.1875 2.625 C-16.1690506 2.23314601 -16.1690506 2.23314601 -14.0625 1.0625 C-12.04322489 1.66828253 -10.03996603 2.33169734 -8.0625 3.0625 C-7.7325 2.4025 -7.4025 1.7425 -7.0625 1.0625 C-6.0725 1.0625 -5.0825 1.0625 -4.0625 1.0625 C-3.0625 0.0625 -3.0625 0.0625 0 0 Z " fill="#ECEEF2" transform="translate(44.0625,77.9375)"/>
<path d="M0 0 C0.66 0.33 1.32 0.66 2 1 C2 1.99 2 2.98 2 4 C3.65 3.34 5.3 2.68 7 2 C7.33 2.99 7.66 3.98 8 5 C7 7 7 7 5.0625 7.6875 C3 8 3 8 1 7 C1 8.32 1 9.64 1 11 C1.66 11.33 2.32 11.66 3 12 C2.67 12.99 2.34 13.98 2 15 C2.66 15.33 3.32 15.66 4 16 C2.625 18 2.625 18 1 20 C0.34 20 -0.32 20 -1 20 C-1.06058594 19.11957031 -1.12117187 18.23914063 -1.18359375 17.33203125 C-1.26738281 16.17058594 -1.35117188 15.00914063 -1.4375 13.8125 C-1.51871094 12.66394531 -1.59992187 11.51539062 -1.68359375 10.33203125 C-1.95403812 7.48401829 -2.37521747 4.78789518 -3 2 C-2.01 1.34 -1.02 0.68 0 0 Z " fill="#E8E9EB" transform="translate(6,87)"/>
<path d="M0 0 C0.66 1.32 1.32 2.64 2 4 C2.66 4 3.32 4 4 4 C4 4.66 4 5.32 4 6 C4.99 6 5.98 6 7 6 C7.33 5.01 7.66 4.02 8 3 C9.24546405 5.49092811 8.7767578 6.41080733 8 9 C8.99 9 9.98 9 11 9 C11 9.66 11 10.32 11 11 C10.01 11 9.02 11 8 11 C7.01 12.485 7.01 12.485 6 14 C6 12.68 6 11.36 6 10 C3.83333333 10.83333333 3.83333333 10.83333333 3 13 C2.01 12.67 1.02 12.34 0 12 C0 11.34 0 10.68 0 10 C-0.66 10 -1.32 10 -2 10 C-2.33 11.98 -2.66 13.96 -3 16 C-3.66 16 -4.32 16 -5 16 C-5.33 13.69 -5.66 11.38 -6 9 C-2.94152152 8.45627049 -0.11227195 8 3 8 C2.01 7.34 1.02 6.68 0 6 C-0.1875 2.875 -0.1875 2.875 0 0 Z " fill="#E1E3E8" transform="translate(29,85)"/>
<path d="M0 0 C4.62 0 9.24 0 14 0 C14.33 0.99 14.66 1.98 15 3 C13.02253397 3.73080266 11.01927511 4.39421747 9 5 C8.34 4.67 7.68 4.34 7 4 C7 4.66 7 5.32 7 6 C8.32 6 9.64 6 11 6 C11 6.66 11 7.32 11 8 C8.36 8 5.72 8 3 8 C2.34 6.68 1.68 5.36 1 4 C0.34 4 -0.32 4 -1 4 C-0.67 2.68 -0.34 1.36 0 0 Z " fill="#E7E7E7" transform="translate(30,40)"/>
<path d="M0 0 C0.33 0 0.66 0 1 0 C1.33 2.31 1.66 4.62 2 7 C7.61 7.33 13.22 7.66 19 8 C19 8.66 19 9.32 19 10 C12.92336881 11.62043498 6.05067242 11.76070375 0 10 C-0.66 10.99 -1.32 11.98 -2 13 C-1.85966889 11.02043559 -1.7125877 9.04134859 -1.5625 7.0625 C-1.48128906 5.96035156 -1.40007813 4.85820313 -1.31640625 3.72265625 C-1 1 -1 1 0 0 Z " fill="#E3E4E6" transform="translate(6,51)"/>
<path d="M0 0 C0 3 0 3 -1.390625 4.5703125 C-2.31101562 5.33988281 -2.31101562 5.33988281 -3.25 6.125 C-3.85328125 6.64320312 -4.4565625 7.16140625 -5.078125 7.6953125 C-7.13416636 9.09108042 -8.53080065 9.73878729 -11 10 C-14.0625 8.1875 -14.0625 8.1875 -17 6 C-17.99 5.34 -18.98 4.68 -20 4 C-19.505 5.051875 -19.01 6.10375 -18.5 7.1875 C-17.17220212 10.25452609 -16.69284994 12.62134936 -17 16 C-22.14018692 8.28971963 -22.14018692 8.28971963 -21.6875 4.125 C-21.460625 3.42375 -21.23375 2.7225 -21 2 C-18 2 -18 2 -15.625 4 C-13.2089243 6.14080909 -13.2089243 6.14080909 -10.5625 6.5 C-6.20352072 5.64946746 -3.09027718 3.09027718 0 0 Z " fill="#E4E4E6" transform="translate(84,3)"/>
<path d="M0 0 C0.66 0 1.32 0 2 0 C3.86553091 8.22268622 4.09545915 14.81159038 2 23 C0.25434889 19.78360346 -0.204437 17.67986596 0 14 C-1.98 14 -3.96 14 -6 14 C-6 13.01 -6 12.02 -6 11 C-3.03 11.495 -3.03 11.495 0 12 C0.33 9.69 0.66 7.38 1 5 C0.34 4.67 -0.32 4.34 -1 4 C-0.67 2.68 -0.34 1.36 0 0 Z M0 23 C0.33 23.66 0.66 24.32 1 25 C0.34 24.67 -0.32 24.34 -1 24 C-0.67 23.67 -0.34 23.34 0 23 Z " fill="#F2F4F8" transform="translate(85,87)"/>
<path d="M0 0 C1.45823212 -0.0270043 2.91660675 -0.04639787 4.375 -0.0625 C5.18710938 -0.07410156 5.99921875 -0.08570312 6.8359375 -0.09765625 C9 0 9 0 11 1 C11.125 4.375 11.125 4.375 11 8 C10.34 8.66 9.68 9.32 9 10 C6.875 9.625 6.875 9.625 5 9 C5.99 8.67 6.98 8.34 8 8 C8 6.02 8 4.04 8 2 C6.68 2 5.36 2 4 2 C3.67 3.65 3.34 5.3 3 7 C1.68 7.33 0.36 7.66 -1 8 C-0.835 7.05125 -0.67 6.1025 -0.5 5.125 C0.0526635 2.19831099 0.0526635 2.19831099 0 0 Z " fill="#DDDFE3" transform="translate(9,83)"/>
<path d="M0 0 C0.33 0.66 0.66 1.32 1 2 C1.99 1.34 2.98 0.68 4 0 C6.1875 0.375 6.1875 0.375 8 1 C8 2.32 8 3.64 8 5 C8.99 5 9.98 5 11 5 C10.67 5.99 10.34 6.98 10 8 C8.35 7.34 6.7 6.68 5 6 C5 5.34 5 4.68 5 4 C4.01 4.495 4.01 4.495 3 5 C0.94140625 5.16796875 0.94140625 5.16796875 -1.4375 5.1875 C-2.61119141 5.20876953 -2.61119141 5.20876953 -3.80859375 5.23046875 C-6 5 -6 5 -9 3 C-6.29120665 1.64560332 -3.99066732 1.93498549 -1 2 C-0.67 1.34 -0.34 0.68 0 0 Z " fill="#E3E3E6" transform="translate(31,121)"/>
<path d="M0 0 C1.32 0 2.64 0 4 0 C4 1.32 4 2.64 4 4 C4.9075 4.12375 5.815 4.2475 6.75 4.375 C9.58970323 4.92109677 11.52590591 5.57263803 14 7 C10.26513121 7.5745952 6.78706732 8 3 8 C2.67 8.99 2.34 9.98 2 11 C1.34 11 0.68 11 0 11 C-0.19491452 9.54263913 -0.38069358 8.08405407 -0.5625 6.625 C-0.66691406 5.81289062 -0.77132813 5.00078125 -0.87890625 4.1640625 C-1 2 -1 2 0 0 Z " fill="#E6E8E7" transform="translate(4,65)"/>
<path d="M0 0 C1.32 0.66 2.64 1.32 4 2 C4 3.98 4 5.96 4 8 C4.66 8 5.32 8 6 8 C5.67 7.34 5.34 6.68 5 6 C4.960008 4.00039988 4.95653201 1.99952758 5 0 C7 2 7 2 8 9 C3.05 9 -1.9 9 -7 9 C-5 8 -3 7 -1 6 C-1 6.66 -1 7.32 -1 8 C-0.34 8 0.32 8 1 8 C0.67 5.36 0.34 2.72 0 0 Z " fill="#DCDDE2" transform="translate(20,104)"/>
<path d="M0 0 C0.33 0.66 0.66 1.32 1 2 C1.66 2 2.32 2 3 2 C2 4 2 4 -0.875 5.0625 C-1.90625 5.371875 -2.9375 5.68125 -4 6 C-4.99 6.33 -5.98 6.66 -7 7 C-8.89470816 7.0685495 -10.7916834 7.08480372 -12.6875 7.0625 C-13.68136719 7.05347656 -14.67523437 7.04445313 -15.69921875 7.03515625 C-16.83810547 7.01775391 -16.83810547 7.01775391 -18 7 C-17.34 6.34 -16.68 5.68 -16 5 C-15.01 5.020625 -14.02 5.04125 -13 5.0625 C-12.01 5.041875 -11.02 5.02125 -10 5 C-9.34 4.01 -8.68 3.02 -8 2 C-5.37643538 1.01484622 -2.75475877 0.57761071 0 0 Z " fill="#EBEDF0" transform="translate(44,54)"/>
<path d="M0 0 C2.475 0.495 2.475 0.495 5 1 C5.33 2.98 5.66 4.96 6 7 C6.33 5.02 6.66 3.04 7 1 C9 2.8125 9 2.8125 11 5 C11 5.99 11 6.98 11 8 C3.57142857 9.28571429 3.57142857 9.28571429 0 8 C0.33 7.01 0.66 6.02 1 5 C1.34227417 3.66893378 1.67751743 2.33599921 2 1 C1.34 0.67 0.68 0.34 0 0 Z " fill="#C8C9CE" transform="translate(9,114)"/>
<path d="M0 0 C0.99 0.33 1.98 0.66 3 1 C3 1.66 3 2.32 3 3 C6.63 3.33 10.26 3.66 14 4 C12 6 12 6 8.875 6.125 C7.92625 6.08375 6.9775 6.0425 6 6 C5.67 6.66 5.34 7.32 5 8 C2.0625 7.25 2.0625 7.25 -1 6 C-2 4 -2 4 -2 2 C-1.34 1.34 -0.68 0.68 0 0 Z " fill="#D6D7D8" transform="translate(14,49)"/>
<path d="M0 0 C1.20628008 2.33214148 2.1654738 4.49642139 3 7 C3.66 7 4.32 7 5 7 C5 5.35 5 3.7 5 2 C5.99 2.33 6.98 2.66 8 3 C7.67 4.65 7.34 6.3 7 8 C4.03 8 1.06 8 -2 8 C-2.66 6.68 -3.32 5.36 -4 4 C-3.01 4.33 -2.02 4.66 -1 5 C-0.67 3.35 -0.34 1.7 0 0 Z " fill="#CDCED2" transform="translate(10,104)"/>
<path d="M0 0 C3.96 0.33 7.92 0.66 12 1 C12 1.66 12 2.32 12 3 C12.99 3.33 13.98 3.66 15 4 C14.67 4.66 14.34 5.32 14 6 C11.03 5.67 8.06 5.34 5 5 C5 4.34 5 3.68 5 3 C2.525 2.01 2.525 2.01 0 1 C0 0.67 0 0.34 0 0 Z " fill="#DADBDD" transform="translate(67,82)"/>
<path d="M0 0 C0.33 0 0.66 0 1 0 C1.33 5.94 1.66 11.88 2 18 C1.34 18 0.68 18 0 18 C-1 15 -1 15 0 12 C-1.32 11.34 -2.64 10.68 -4 10 C-3.525625 9.278125 -3.05125 8.55625 -2.5625 7.8125 C-1.05847097 5.10524774 -0.43400818 3.03805725 0 0 Z " fill="#F2F5F7" transform="translate(55,56)"/>
<path d="M0 0 C0 0.99 0 1.98 0 3 C0.51648073 6.87360545 2.49124305 9.08660483 5 12 C4.34 13.32 3.68 14.64 3 16 C1.125 15.6875 1.125 15.6875 -1 15 C-1.66 14.01 -2.32 13.02 -3 12 C-1.02 12.66 0.96 13.32 3 14 C2.54625 13.5875 2.0925 13.175 1.625 12.75 C-0.8541568 10.08013883 -1.90276583 8.02095875 -2.25 4.375 C-2 2 -2 2 0 0 Z " fill="#E0E0E1" transform="translate(122,20)"/>
<path d="M0 0 C1.65 0 3.3 0 5 0 C4.67 3.63 4.34 7.26 4 11 C3.01 11 2.02 11 1 11 C1.020625 10.195625 1.04125 9.39125 1.0625 8.5625 C1.29633621 6.06645115 1.29633621 6.06645115 0 5 C-0.04063832 3.33382885 -0.042721 1.66611905 0 0 Z " fill="#EAEAEC" transform="translate(107,16)"/>
<path d="M0 0 C2.4932534 0.99730136 3.77467439 1.65074531 5.25 3.9375 C6 6 6 6 6 9 C3.69 9.33 1.38 9.66 -1 10 C-1 9.34 -1 8.68 -1 8 C-0.34 8 0.32 8 1 8 C0.67 5.36 0.34 2.72 0 0 Z " fill="#DFE2E5" transform="translate(30,103)"/>
<path d="M0 0 C0 0.66 0 1.32 0 2 C0.99 2.33 1.98 2.66 3 3 C0 4 0 4 -3 3 C-3.7425 3.845625 -4.485 4.69125 -5.25 5.5625 C-6.1575 6.366875 -7.065 7.17125 -8 8 C-10.3125 7.8125 -10.3125 7.8125 -12 7 C-12.33 5.68 -12.66 4.36 -13 3 C-12.34 3 -11.68 3 -11 3 C-10.34 3.66 -9.68 4.32 -9 5 C-8.071875 4.175 -7.14375 3.35 -6.1875 2.5 C-3.375 0 -3.375 0 0 0 Z " fill="#EAEAED" transform="translate(118,28)"/>
<path d="M0 0 C-1.0625 1.5 -1.0625 1.5 -3 3 C-6.6875 3.1875 -6.6875 3.1875 -10 3 C-10.33 2.34 -10.66 1.68 -11 1 C-10 -1 -10 -1 -7.75 -1.75 C-4.57861448 -2.03830777 -2.83315218 -1.37610249 0 0 Z " fill="#F3F4F7" transform="translate(76,113)"/>
<path d="M0 0 C1.98 0.495 1.98 0.495 4 1 C4.33 3.64 4.66 6.28 5 9 C3.68 9.33 2.36 9.66 1 10 C0.855625 9.236875 0.71125 8.47375 0.5625 7.6875 C0.0367406 4.91827092 0.0367406 4.91827092 -1 2 C-0.67 1.34 -0.34 0.68 0 0 Z " fill="#D2D4D5" transform="translate(7,71)"/>
<path d="M0 0 C1.2065625 0.0309375 1.2065625 0.0309375 2.4375 0.0625 C2.4375 2.7025 2.4375 5.3425 2.4375 8.0625 C0.7875 7.7325 -0.8625 7.4025 -2.5625 7.0625 C-2.94383299 5.0710944 -3.27575582 3.06970923 -3.5625 1.0625 C-2.5625 0.0625 -2.5625 0.0625 0 0 Z " fill="#DEDFE2" transform="translate(82.5625,112.9375)"/>
<path d="M0 0 C1.4540625 0.0309375 1.4540625 0.0309375 2.9375 0.0625 C2.6075 1.3825 2.2775 2.7025 1.9375 4.0625 C1.38320313 3.87558594 0.82890625 3.68867187 0.2578125 3.49609375 C-3.31325812 2.82877247 -6.3453118 3.91382818 -9.8203125 4.78515625 C-10.56023438 4.87667969 -11.30015625 4.96820313 -12.0625 5.0625 C-12.7225 4.4025 -13.3825 3.7425 -14.0625 3.0625 C-10.3125 1.9375 -10.3125 1.9375 -8.0625 3.0625 C-7.7325 2.4025 -7.4025 1.7425 -7.0625 1.0625 C-6.0725 1.0625 -5.0825 1.0625 -4.0625 1.0625 C-3.0625 0.0625 -3.0625 0.0625 0 0 Z " fill="#F3F5F8" transform="translate(44.0625,77.9375)"/>
<path d="M0 0 C-0.33 2.31 -0.66 4.62 -1 7 C-2.65 7 -4.3 7 -6 7 C-6 5.02 -6 3.04 -6 1 C-3 0 -3 0 0 0 Z " fill="#DFE1E5" transform="translate(86,92)"/>
<path d="M0 0 C0 0.99 0 1.98 0 3 C-3.3 3.66 -6.6 4.32 -10 5 C-8.20177069 -0.39468792 -5.09771267 -0.22656501 0 0 Z " fill="#E2E2E6" transform="translate(73,88)"/>
<path d="M0 0 C2.625 0.9375 2.625 0.9375 5 2 C3.7934375 2.9590625 3.7934375 2.9590625 2.5625 3.9375 C0.7249496 5.40603502 0.7249496 5.40603502 -1 7 C-2.66617115 7.04063832 -4.33388095 7.042721 -6 7 C-6 5.68 -6 4.36 -6 3 C-5.01 2.67 -4.02 2.34 -3 2 C-3 2.99 -3 3.98 -3 5 C-1.68 4.67 -0.36 4.34 1 4 C1 3.34 1 2.68 1 2 C0.01 1.67 -0.98 1.34 -2 1 C-1.34 0.67 -0.68 0.34 0 0 Z " fill="#E2E3E7" transform="translate(42,80)"/>
<path d="M0 0 C0.66 0 1.32 0 2 0 C1.649375 0.70125 1.29875 1.4025 0.9375 2.125 C-0.18370391 5.56335867 0.09419693 7.5277549 1 11 C1.99 12.485 1.99 12.485 3 14 C0 14 0 14 -1.75 12.5 C-3.66318152 8.67363697 -2.87228797 6.16014262 -2 2 C-1.34 1.34 -0.68 0.68 0 0 Z " fill="#EBEBEE" transform="translate(82,11)"/>
<path d="M0 0 C0.99 0.33 1.98 0.66 3 1 C2.5206753 5.31392226 1.2542015 7.16569547 -2 10 C-2 2 -2 2 0 0 Z " fill="#ECECEF" transform="translate(86,1)"/>
<path d="M0 0 C-1.32 2.64 -2.64 5.28 -4 8 C-4.99 8 -5.98 8 -7 8 C-6.67 6.02 -6.34 4.04 -6 2 C-6.66 1.67 -7.32 1.34 -8 1 C-2.25 -1.125 -2.25 -1.125 0 0 Z " fill="#F2F3F7" transform="translate(44,86)"/>
<path d="M0 0 C0.33 1.32 0.66 2.64 1 4 C0.01 4 -0.98 4 -2 4 C-1.67 4.99 -1.34 5.98 -1 7 C0.65 6.34 2.3 5.68 4 5 C2.68 6.65 1.36 8.3 0 10 C-1.32 9.67 -2.64 9.34 -4 9 C-4.25 6.75 -4.25 6.75 -4 4 C-2 1.6875 -2 1.6875 0 0 Z " fill="#EBECEE" transform="translate(105,60)"/>
<path d="M0 0 C1.32 0 2.64 0 4 0 C4 1.98 4 3.96 4 6 C4.99 6.33 5.98 6.66 7 7 C4 8 4 8 1.8125 7.0625 C1.214375 6.711875 0.61625 6.36125 0 6 C0 4.02 0 2.04 0 0 Z " fill="#E0E4EB" transform="translate(71,105)"/>
<path d="M0 0 C0.99 0 1.98 0 3 0 C3 0.66 3 1.32 3 2 C3.66 2 4.32 2 5 2 C5 2.66 5 3.32 5 4 C5.99 4.66 6.98 5.32 8 6 C4.625 6.125 4.625 6.125 1 6 C0.34 5.34 -0.32 4.68 -1 4 C-0.625 1.875 -0.625 1.875 0 0 Z " fill="#E4E5E9" transform="translate(46,87)"/>
<path d="M0 0 C0.99 0.495 0.99 0.495 2 1 C2 1.66 2 2.32 2 3 C3.0725 3.12375 4.145 3.2475 5.25 3.375 C8.37863615 3.89643936 10.33480424 4.40088254 13 6 C6.375 7.125 6.375 7.125 3 6 C3 5.34 3 4.68 3 4 C2.01 3.67 1.02 3.34 0 3 C0 2.01 0 1.02 0 0 Z " fill="#F1F3F5" transform="translate(5,66)"/>
<path d="M0 0 C3.96 0.99 3.96 0.99 8 2 C7.67 2.66 7.34 3.32 7 4 C4.03 4 1.06 4 -2 4 C-1.34 2.68 -0.68 1.36 0 0 Z " fill="#E5E6E8" transform="translate(65,82)"/>
<path d="M0 0 C0.66 0 1.32 0 2 0 C2 0.99 2 1.98 2 3 C2.66 3.33 3.32 3.66 4 4 C4 4.99 4 5.98 4 7 C1.36 6.34 -1.28 5.68 -4 5 C-4 4.34 -4 3.68 -4 3 C-3.01 2.67 -2.02 2.34 -1 2 C-0.67 1.34 -0.34 0.68 0 0 Z " fill="#E8E9EE" transform="translate(15,98)"/>
<path d="M0 0 C0.33 0.66 0.66 1.32 1 2 C2.65 1.34 4.3 0.68 6 0 C6 0.99 6 1.98 6 3 C4.06544546 3.38991022 2.12718172 3.76145349 0.1875 4.125 C-0.89144531 4.33382812 -1.97039063 4.54265625 -3.08203125 4.7578125 C-6 5 -6 5 -9 3 C-6.29120665 1.64560332 -3.99066732 1.93498549 -1 2 C-0.67 1.34 -0.34 0.68 0 0 Z " fill="#EEEEF3" transform="translate(31,121)"/>
<path d="M0 0 C0.99 0 1.98 0 3 0 C3 2.64 3 5.28 3 8 C2.01 8.33 1.02 8.66 0 9 C0 6.03 0 3.06 0 0 Z " fill="#DFE2E6" transform="translate(76,115)"/>
<path d="M0 0 C2.6875 1.9375 2.6875 1.9375 5 4 C4.01 4.495 4.01 4.495 3 5 C2.34444881 7.52733235 2.34444881 7.52733235 2 10 C1.34 9.67 0.68 9.34 0 9 C0.0928125 7.576875 0.0928125 7.576875 0.1875 6.125 C0.125625 5.09375 0.06375 4.0625 0 3 C-0.99 2.34 -1.98 1.68 -3 1 C-2.01 0.67 -1.02 0.34 0 0 Z " fill="#F3F4F8" transform="translate(36,111)"/>
<path d="M0 0 C0.33 0.66 0.66 1.32 1 2 C1.99 2.33 2.98 2.66 4 3 C0.09971775 5.60018816 -3.47434569 5.15085514 -8 5 C-7.67 4.01 -7.34 3.02 -7 2 C-4.69 2 -2.38 2 0 2 C0 1.34 0 0.68 0 0 Z " fill="#EEF2F5" transform="translate(46,65)"/>
<path d="M0 0 C4.62 0 9.24 0 14 0 C14 0.66 14 1.32 14 2 C8.58264203 2.93402724 5.19548425 3.20808081 0 1 C0 0.67 0 0.34 0 0 Z " fill="#F0F1F3" transform="translate(11,59)"/>
<path d="M0 0 C0.99 0 1.98 0 3 0 C3 2.31 3 4.62 3 7 C2.01 7.33 1.02 7.66 0 8 C-1.43088528 5.13822943 -0.59991697 3.06624227 0 0 Z " fill="#EAEBF0" transform="translate(51,107)"/>
<path d="M0 0 C-0.66 0 -1.32 0 -2 0 C-1.67 2.97 -1.34 5.94 -1 9 C-3.12508244 5.81237635 -3.5020163 3.73487777 -4 0 C-5.32 0.33 -6.64 0.66 -8 1 C-8 0.34 -8 -0.32 -8 -1 C-4.59745511 -2.2151946 -3.06748874 -1.86240388 0 0 Z " fill="#E6E8EC" transform="translate(30,104)"/>
<path d="M0 0 C2.00720923 0.28674418 4.0085944 0.61866701 6 1 C6 2.32 6 3.64 6 5 C4.68 5 3.36 5 2 5 C2 4.01 2 3.02 2 2 C1.01 1.67 0.02 1.34 -1 1 C-0.67 0.67 -0.34 0.34 0 0 Z " fill="#DDE0E2" transform="translate(39,69)"/>
<path d="M0 0 C1.32 0.33 2.64 0.66 4 1 C4 2.65 4 4.3 4 6 C3.01 6.33 2.02 6.66 1 7 C0.67 4.69 0.34 2.38 0 0 Z " fill="#CACDCE" transform="translate(9,61)"/>
<path d="M0 0 C4.12989477 4.26311718 4.61271765 7.28758534 5 13 C2.05633121 8.58449682 0 5.38909875 0 0 Z " fill="#D4D4D5" transform="translate(62,6)"/>
<path d="M0 0 C-0.33 0.99 -0.66 1.98 -1 3 C-2.98 3 -4.96 3 -7 3 C-7 2.01 -7 1.02 -7 0 C-4.3333581 -1.33332095 -2.83319697 -0.67102033 0 0 Z " fill="#EBECEE" transform="translate(80,124)"/>
<path d="M0 0 C2 1 2 1 3.125 4.0625 C3.41375 5.031875 3.7025 6.00125 4 7 C3.01 7.495 3.01 7.495 2 8 C1.34 7.67 0.68 7.34 0 7 C0 4.69 0 2.38 0 0 Z " fill="#E2E2EA" transform="translate(59,117)"/>
<path d="M0 0 C2.875 -0.1875 2.875 -0.1875 6 0 C6.66 0.99 7.32 1.98 8 3 C5.69 3.33 3.38 3.66 1 4 C0.67 2.68 0.34 1.36 0 0 Z " fill="#ECEDF0" transform="translate(6,80)"/>
<path d="M0 0 C1.41623216 -0.05447047 2.83308191 -0.09300508 4.25 -0.125 C5.03890625 -0.14820313 5.8278125 -0.17140625 6.640625 -0.1953125 C9.20731941 0.0171622 10.7916067 0.71345895 13 2 C11.68 2 10.36 2 9 2 C9.33 2.99 9.66 3.98 10 5 C9.01 4.67 8.02 4.34 7 4 C7 3.67 7 3.34 7 3 C4.69 2.67 2.38 2.34 0 2 C0 1.34 0 0.68 0 0 Z " fill="#D6D6D6" transform="translate(23,43)"/>
<path d="M0 0 C4.455 2.97 4.455 2.97 9 6 C8.34 6.66 7.68 7.32 7 8 C6.236875 7.34 5.47375 6.68 4.6875 6 C2.15722061 3.70149462 2.15722061 3.70149462 -1 4 C-0.67 2.68 -0.34 1.36 0 0 Z " fill="#DEDEE0" transform="translate(64,4)"/>
<path d="M0 0 C3.79303725 1.00193437 6.71536341 1.81024227 10 4 C6.7 4 3.4 4 0 4 C0 2.68 0 1.36 0 0 Z " fill="#E9EAED" transform="translate(7,111)"/>
<path d="M0 0 C0.99 0 1.98 0 3 0 C2.67 1.65 2.34 3.3 2 5 C0.68 5.33 -0.64 5.66 -2 6 C-1.34 4.02 -0.68 2.04 0 0 Z " fill="#CECED2" transform="translate(10,85)"/>
<path d="M0 0 C0.33 0.99 0.66 1.98 1 3 C1.99 3.33 2.98 3.66 4 4 C0.7 4.66 -2.6 5.32 -6 6 C-6.33 5.34 -6.66 4.68 -7 4 C-3.535 3.505 -3.535 3.505 0 3 C0 2.01 0 1.02 0 0 Z " fill="#F6F6F9" transform="translate(56,78)"/>
<path d="M0 0 C0.33 0 0.66 0 1 0 C1.185625 1.7015625 1.185625 1.7015625 1.375 3.4375 C1.684375 5.2009375 1.684375 5.2009375 2 7 C2.66 7.33 3.32 7.66 4 8 C2.35 8 0.7 8 -1 8 C-1.04241723 5.66705225 -1.04092937 3.33297433 -1 1 C-0.67 0.67 -0.34 0.34 0 0 Z " fill="#F2F4F3" transform="translate(6,51)"/>
<path d="M0 0 C1.98 0 3.96 0 6 0 C6 0.99 6 1.98 6 3 C3.69 3 1.38 3 -1 3 C-0.67 2.01 -0.34 1.02 0 0 Z " fill="#E4E5E7" transform="translate(20,54)"/>
<path d="M0 0 C1.32 0.33 2.64 0.66 4 1 C4 2.98 4 4.96 4 7 C3.01 7.33 2.02 7.66 1 8 C0.67 5.36 0.34 2.72 0 0 Z " fill="#E3E3E8" transform="translate(33,114)"/>
<path d="M0 0 C-2.38573379 1.89213369 -4.07175348 3.02391783 -7 4 C-7.99 3.34 -8.98 2.68 -10 2 C-6.3558226 -0.4294516 -4.28758728 -0.16179575 0 0 Z " fill="#F0F2F6" transform="translate(31,69)"/>
<path d="M0 0 C1.32 0.66 2.64 1.32 4 2 C3.34 3.65 2.68 5.3 2 7 C1.01 6.67 0.02 6.34 -1 6 C-0.67 4.02 -0.34 2.04 0 0 Z " fill="#C9CBD3" transform="translate(21,116)"/>
<path d="M0 0 C0.99 0.33 1.98 0.66 3 1 C3 2.65 3 4.3 3 6 C2.01 6 1.02 6 0 6 C0 4.02 0 2.04 0 0 Z " fill="#E3E6EB" transform="translate(40,106)"/>
<path d="M0 0 C1.2065625 0.0309375 1.2065625 0.0309375 2.4375 0.0625 C2.1075 0.7225 1.7775 1.3825 1.4375 2.0625 C0.7775 2.0625 0.1175 2.0625 -0.5625 2.0625 C-1.2225 3.3825 -1.8825 4.7025 -2.5625 6.0625 C-2.94468767 4.40635343 -3.27645102 2.73792976 -3.5625 1.0625 C-2.5625 0.0625 -2.5625 0.0625 0 0 Z " fill="#E4E5EA" transform="translate(54.5625,96.9375)"/>
<path d="M0 0 C1.485 0.99 1.485 0.99 3 2 C3.1875 4.625 3.1875 4.625 3 7 C2.67 6.34 2.34 5.68 2 5 C1.01 4.67 0.02 4.34 -1 4 C-0.67 2.68 -0.34 1.36 0 0 Z " fill="#E2E4E9" transform="translate(39,115)"/>
<path d="M0 0 C2.31 0.33 4.62 0.66 7 1 C7 1.66 7 2.32 7 3 C4.39417629 3.93065133 3.35801776 4.14917407 0.75 3.0625 C0.1725 2.711875 -0.405 2.36125 -1 2 C-0.67 1.34 -0.34 0.68 0 0 Z " fill="#F2F3F7" transform="translate(51,89)"/>
<path d="M0 0 C0.66 0 1.32 0 2 0 C2 1.32 2 2.64 2 4 C2.99 4 3.98 4 5 4 C4.67 5.32 4.34 6.64 4 8 C3.34 8 2.68 8 2 8 C1.34 5.36 0.68 2.72 0 0 Z " fill="#D1D4DB" transform="translate(12,73)"/>
</svg>
